<ttFont>
          <CharString index="0">
            vlineto
            -105 callsubr
            return
          </CharString>
          <CharString index="1">
            -101 callsubr
            -102 callsubr
            return
          </CharString>
          <CharString index="2">
            -100 callgsubr
            92 -106 callgsubr
            return
          </CharString>
          <CharString index="3">
            hlineto
            -104 callgsubr
            return
          </CharString>
          <CharString index="4">
            vlineto
            -99 callgsubr
            return
          </CharString>
          <CharString index="5">
            -9 -103 callsubr
            return
          </CharString>
          <CharString index="6">
            -96 callsubr
            hvcurveto
            return
          </CharString>
          <CharString index="7">
            hlineto
            -99 callsubr
            return
          </CharString>
          <CharString index="8">
            7 2 -75 callgsubr
            return
          </CharString>
          <CharString index="9">
            -101 callsubr
            -86 callsubr
            return
          </CharString>
          <CharString index="10">
            -90 callsubr
            hvcurveto
            return
          </CharString>
          <CharString index="11">
            -7 -79 callgsubr
            return
          </CharString>
          <CharString index="12">
            -76 callgsubr
            7 return
          </CharString>
          <CharString index="13">
            vlineto
            -93 callgsubr
            return
          </CharString>
          <CharString index="14">
            -5 2 -3 7 return
          </CharString>
          <CharString index="15">
            hlineto
            -83 callgsubr
            348 vlineto
            12 callsubr
            39 hlineto
            67 37 -38 128 callsubr
            -38 -67 vhcurveto
            -53 -91 callsubr
            53 hlineto
            81 53 50 75 callsubr
            50 -81 vhcurveto
            -39 hlineto
            -49 -37 -17 -32 -14 hvcurveto
            -4 153 hlineto
            63 callsubr
            endchar
          </CharString>
          <CharString index="16">
            hlineto
            -98 callsubr
            return
          </CharString>
          <CharString index="17">
            7 -64 callgsubr
            return
          </CharString>
          <CharString index="18">
            -88 callsubr
            -162 275 rlineto
            return
          </CharString>
          <CharString index="19">
            -106 callsubr
            183 -82 callsubr
            return
          </CharString>
          <CharString index="20">
            -98 callgsubr
            -88 callgsubr
            hvcurveto
            return
          </CharString>
          <CharString index="21">
            -12 -103 callsubr
            return
          </CharString>
          <CharString index="22">
            hlineto
            -84 callgsubr
            return
          </CharString>
          <CharString index="23">
            14 hlineto
            5 3 2 return
          </CharString>
          <CharString index="24">
            4 -120 21 callsubr
            231 38 callgsubr
            -74 callgsubr
            hvcurveto
            -30 99 callgsubr
            -78 -55 callsubr
            96 -28 callgsubr
            91 -106 callgsubr
            return
          </CharString>
          <CharString index="25">
            hlineto
            7 2 -3 -5 hvcurveto
            -166 vlineto
            -76 -43 -27 -48 vhcurveto
            -56 hlineto
            -7 -2 -3 -5 -58 callsubr
            return
          </CharString>
          <CharString index="26">
            -100 callsubr
            -232 vlineto
            -80 -43 -46 callgsubr
            53 36 94 hvcurveto
            232 -95 callgsubr
            return
          </CharString>
          <CharString index="27">
            3 -2 5 return
          </CharString>
          <CharString index="28">
            -7 2 4 -2 5 hhcurveto
            13 hlineto
            4 3 2 4 4 -1 3 -3 9 hvcurveto
            -6 19 -5 19 19 vvcurveto
            35 18 return
          </CharString>
          <CharString index="29">
            623 -91 callgsubr
            return
          </CharString>
          <CharString index="30">
            -14 -85 callsubr
            return
          </CharString>
          <CharString index="31">
            -1 -78 callsubr
            return
          </CharString>
          <CharString index="32">
            hlineto
            -85 callgsubr
            return
          </CharString>
          <CharString index="33">
            -2 callsubr
            -100 callsubr
            return
          </CharString>
          <CharString index="34">
            -5 -3 -2 -7 hvcurveto
            -25 -53 callgsubr
            return
          </CharString>
          <CharString index="35">
            hlineto
            -67 callgsubr
            return
          </CharString>
          <CharString index="36">
            -5 -2 -3 -7 vhcurveto
            return
          </CharString>
          <CharString index="37">
            rlineto
            -6 4 3 -3 7 hhcurveto
            -84 callsubr
            4 4 -4 6 -1 2 hvcurveto
            return
          </CharString>
          <CharString index="38">
            -39 -72 callsubr
            return
          </CharString>
          <CharString index="39">
            hlineto
            67 33 -25 -68 hvcurveto
            -51 vlineto
            -87 callsubr
            52 148 callsubr
            vhcurveto
            endchar
          </CharString>
          <CharString index="40">
            rmoveto
            -7 -5 -3 -6 -3 hvcurveto
            -68 -111 rlineto
            -5 -3 1 -4 268 callsubr
            5 3 5 4 hvcurveto
            92 34 callsubr
          </CharString>
          <CharString index="41">
            189 callgsubr
            -90 -15 callgsubr
            150 -19 callsubr
            160 -95 callgsubr
            107 -106 callgsubr
            return
          </CharString>
          <CharString index="42">
            29 -44 139 -240 -70 callsubr
            return
          </CharString>
          <CharString index="43">
            vlineto
            -71 callsubr
            return
          </CharString>
          <CharString index="44">
            hlineto
            -69 callgsubr
            return
          </CharString>
          <CharString index="45">
            -52 callgsubr
            -362 33 rmoveto
            -59 callgsubr
            return
          </CharString>
          <CharString index="46">
            rmoveto
            -77 callgsubr
            return
          </CharString>
          <CharString index="47">
            3 callsubr
            -109 -91 callsubr
            108 hlineto
            return
          </CharString>
          <CharString index="48">
            -87 callsubr
            111 -94 callsubr
            -156 -111 -7 callgsubr
            endchar
          </CharString>
          <CharString index="49">
            hvcurveto
            -57 callgsubr
            return
          </CharString>
          <CharString index="50">
            -6 109 265 rmoveto
            70 callsubr
            -100 -64 callsubr
            22 -265 -16 callgsubr
            -205 -55 callsubr
            92 vlineto
            5 2 3 237 callgsubr
            3 7 hvcurveto
            127 6 callgsubr
            -88 -26 callgsubr
            return
          </CharString>
          <CharString index="51">
            -72 callgsubr
            vhcurveto
            return
          </CharString>
          <CharString index="52">
            hlineto
            -48 callsubr
            return
          </CharString>
          <CharString index="53">
            240 callgsubr
            -46 hlineto
            -96 callsubr
            hvcurveto
            return
          </CharString>
          <CharString index="54">
            hlineto
            48 34 14 34 18 hvcurveto
            4 return
          </CharString>
          <CharString index="55">
            rmoveto
            5 callgsubr
            197 -100 callsubr
            -336 33 rmoveto
            -12 callsubr
            return
          </CharString>
          <CharString index="56">
            10 callgsubr
            vlineto
            -76 -43 -27 -48 vhcurveto
            return
          </CharString>
          <CharString index="57">
            hlineto
            -61 callgsubr
            return
          </CharString>
          <CharString index="58">
            256 callsubr
            175 -100 callsubr
            -110 -474 18 callgsubr
            -206 -26 callgsubr
            return
          </CharString>
          <CharString index="59">
            -67 -37 38 callsubr
            return
          </CharString>
          <CharString index="60">
            81 callsubr
            -46 callsubr
            return
          </CharString>
          <CharString index="61">
            vlineto
            -87 callsubr
            111 -95 callgsubr
            return
          </CharString>
          <CharString index="62">
            vlineto
            -56 callsubr
            return
          </CharString>
          <CharString index="63">
            3 5 hvcurveto
            return
          </CharString>
          <CharString index="64">
            146 callsubr
            endchar
          </CharString>
          <CharString index="65">
            103 callgsubr
            13 195 callsubr
            102 258 callsubr
            102 -136 rlineto
            -6 5 4 -4 6 hhcurveto
            13 hlineto
            5 3 2 5 3 -2 3 -2 3 hvcurveto
            return
          </CharString>
          <CharString index="66">
            rmoveto
            -5 -2 -3 -7 vhcurveto
            -224 hlineto
            -22 callgsubr
            return
          </CharString>
          <CharString index="67">
            -98 callsubr
            67 hlineto
            51 43 -22 -80 hvcurveto
            return
          </CharString>
          <CharString index="68">
            -106 callsubr
            77 -47 callsubr
            return
          </CharString>
          <CharString index="69">
            -3 callgsubr
            vhcurveto
            return
          </CharString>
          <CharString index="70">
            -5 -3 -2 return
          </CharString>
          <CharString index="71">
            -3 2 -5 return
          </CharString>
          <CharString index="72">
            98 callgsubr
            -135 -18 callgsubr
            -167 hlineto
            -67 -27 31 68 hvcurveto
            49 vlineto
            63 29 33 65 52 callgsubr
            -62 -32 33 63 hvcurveto
            59 99 callsubr
            235 -100 callsubr
            -139 vlineto
            -8 -1 -7 -3 -5 vhcurveto
            6 -16 -20 3 -22 hhcurveto
            return
          </CharString>
          <CharString index="73">
            53 443 643 rmoveto
            -5 -3 -3 -6 169 callsubr
            -112 -55 callsubr
            497 -94 callsubr
            -498 -32 callgsubr
            112 193 callsubr
            499 vlineto
            5 -3 3 -5 vhcurveto
            return
          </CharString>
          <CharString index="74">
            -14 callsubr
            128 -81 callsubr
            return
          </CharString>
          <CharString index="75">
            56 339 hmoveto
            24 callgsubr
            28 vmoveto
            37 callsubr
            return
          </CharString>
          <CharString index="76">
            -4 204 28 rmoveto
            114 callgsubr
            85 88 callgsubr
            -28 vmoveto
            138 callsubr
            107 callgsubr
            return
          </CharString>
          <CharString index="77">
            0 -21 -15 -45 -42 vhcurveto
            -67 -62 187 callsubr
            -3 -3 vvcurveto
            -3 3 -3 5 vhcurveto
            11 123 callgsubr
            45 42 34 31 25 24 rrcurveto
            67 63 6 6 -4 callgsubr
            return
          </CharString>
          <CharString index="78">
            318 186 callgsubr
            -46 hlineto
            0 callsubr
            return
          </CharString>
          <CharString index="79">
            187 callsubr
            -3 -2 vvcurveto
            -4 3 -3 5 vhcurveto
            return
          </CharString>
          <CharString index="80">
            122 callgsubr
            -7 -14 callsubr
            7 23 callsubr
            return
          </CharString>
          <CharString index="81">
            -68 -37 -41 -67 vhcurveto
            return
          </CharString>
          <CharString index="82">
            -131 47 rlineto
            -43 15 -25 19 45 vvcurveto
            27 vlineto
            31 24 38 67 vhcurveto
            161 -104 callsubr
            -161 hlineto
            -87 -35 -45 -67 -63 23 -32 70 -24 hvcurveto
            132 -46 rlineto
            49 -17 11 -34 -44 vvcurveto
            -30 vlineto
            -54 -34 -26 -67 vhcurveto
            -170 -91 callsubr
            return
          </CharString>
          <CharString index="83">
            -98 -32 callgsubr
            78 hlineto
            5 5 0 1 5 hvcurveto
            -107 -107 33 callgsubr
            14 274 callgsubr
            148 rlineto
            14 callsubr
          </CharString>
          <CharString index="84">
            rmoveto
            -17 callgsubr
            return
          </CharString>
          <CharString index="85">
            34 11 2 11 22 hhcurveto
            27 6 -15 -43 hvcurveto
            -41 vlineto
            -98 callgsubr
            7 hlineto
            -83 callgsubr
            42 vlineto
            55 -11 23 -45 -31 -11 -10 -44 -14 vhcurveto
            -44 -14 -5 -10 -19 hhcurveto
            -27 -6 15 43 hvcurveto
            38 -45 callsubr
            -7 -85 callsubr
            return
          </CharString>
          <CharString index="86">
            -87 callsubr
            581 -95 callgsubr
            return
          </CharString>
          <CharString index="87">
            -19 callsubr
            137 -95 callgsubr
            return
          </CharString>
          <CharString index="88">
            hlineto
            -1 callgsubr
            return
          </CharString>
          <CharString index="89">
            -58 callgsubr
            -131 vlineto
            return
          </CharString>
          <CharString index="90">
            hhcurveto
            -69 callsubr
            return
          </CharString>
          <CharString index="91">
            hlineto
            -100 callgsubr
            return
          </CharString>
          <CharString index="92">
            -31 callgsubr
            -121 hlineto
            -101 callsubr
            -95 vlineto
            33 callsubr
            return
          </CharString>
          <CharString index="93">
            hlineto
            -106 callsubr
            return
          </CharString>
          <CharString index="94">
            vlineto
            77 -26 36 -68 -70 -24 -36 -76 vhcurveto
            -14 vlineto
            -87 callsubr
            14 vlineto
            61 12 23 52 52 12 -24 -61 vhcurveto
            return
          </CharString>
          <CharString index="95">
            -106 callsubr
            82 -5 callgsubr
            return
          </CharString>
          <CharString index="96">
            71 90 136 rmoveto
            -38 callsubr
            120 193 callsubr
            53 vlineto
            196 -358 -90 153 vvcurveto
            58 -48 callgsubr
            120 6 callsubr
            -29 vlineto
            -87 callsubr
            30 6 callgsubr
            -120 277 callgsubr
            -60 vlineto
            -180 358 91 -171 vvcurveto
            -50 -18 callgsubr
            -120 -55 callsubr
            39 -94 callsubr
            return
          </CharString>
          <CharString index="97">
            rmoveto
            6 -3 -5 3 -7 hhcurveto
            -30 hlineto
            -5 -3 -4 -5 4 hvcurveto
            92 -112 rlineto
            -5 4 5 -3 268 callsubr
            1 4 5 -3 hvcurveto
            endchar
          </CharString>
          <CharString index="98">
            81 20 callsubr
            return
          </CharString>
          <CharString index="99">
            -7 21 callgsubr
            return
          </CharString>
          <CharString index="100">
            -100 callsubr
            -119 -64 callsubr
            return
          </CharString>
          <CharString index="101">
            218 callgsubr
            -308 -64 callsubr
            -162 hlineto
            -12 22 -18 17 -25 10 215 callsubr
            32 vlineto
            83 -53 50 -81 154 callgsubr
            94 6 callsubr
            -30 59 callgsubr
            -42 vlineto
            -68 -37 -41 -67 145 callsubr
            130 193 callsubr
            44 vlineto
            15 -2 13 -3 13 vhcurveto
            152 -100 callsubr
            -244 vlineto
            -21 callsubr
            return
          </CharString>
          <CharString index="102">
            -81 -53 -53 -83 hvcurveto
            return
          </CharString>
          <CharString index="103">
            28 callsubr
            43 hlineto
            -93 callgsubr
            -492 vlineto
            -98 callgsubr
            return
          </CharString>
          <CharString index="104">
            -76 callsubr
            128 -81 callsubr
            return
          </CharString>
          <CharString index="105">
            -95 callgsubr
            223 return
          </CharString>
          <CharString index="106">
            hlineto
            81 43 33 73 hvcurveto
            54 vlineto
            73 -43 31 -81 vhcurveto
            -81 265 callgsubr
            159 -20 callsubr
            return
          </CharString>
          <CharString index="107">
            -61 callgsubr
            272 32 callgsubr
            return
          </CharString>
          <CharString index="108">
            36 callsubr
            -119 251 callgsubr
            -32 -73 hvcurveto
            -22 253 callgsubr
            78 hlineto
            67 30 -19 -58 hvcurveto
            -47 vlineto
            -58 -34 -21 -62 vhcurveto
            -92 hlineto
            -56 -30 221 callsubr
            46 -33 70 vhcurveto
            92 hlineto
            75 51 33 73 hvcurveto
            49 vlineto
            73 -46 31 -81 vhcurveto
            -78 225 callsubr
            20 120 callsubr
            159 -20 callsubr
            90 -106 callgsubr
            return
          </CharString>
          <CharString index="109">
            53 -17 -48 17 -52 hhcurveto
            -81 -53 -40 -93 hvcurveto
            return
          </CharString>
          <CharString index="110">
            vlineto
            8 callgsubr
            return
          </CharString>
          <CharString index="111">
            vlineto
            -99 callsubr
            return
          </CharString>
          <CharString index="112">
            -46 hlineto
            -101 callsubr
            return
          </CharString>
          <CharString index="113">
            hlineto
            16 callgsubr
            return
          </CharString>
          <CharString index="114">
            vhcurveto
            5 callsubr
            return
          </CharString>
          <CharString index="115">
            25 100 callgsubr
            272 vlineto
            4 1 3 5 1 vhcurveto
            return
          </CharString>
          <CharString index="116">
            -72 -42 43 73 hvcurveto
            return
          </CharString>
          <CharString index="117">
            rmoveto
            -39 callsubr
            return
          </CharString>
          <CharString index="118">
            -91 callgsubr
            354 84 callsubr
            -81 -53 -53 -83 hvcurveto
            return
          </CharString>
          <CharString index="119">
            65 38 36 66 vhcurveto
            return
          </CharString>
          <CharString index="120">
            rmoveto
            -19 callgsubr
            return
          </CharString>
          <CharString index="121">
            -83 callsubr
            endchar
          </CharString>
          <CharString index="122">
            46 callgsubr
            17 -21 return
          </CharString>
          <CharString index="123">
            277 callgsubr
            -371 -32 callgsubr
            return
          </CharString>
          <CharString index="124">
            rmoveto
            -13 vlineto
            -75 29 -32 64 vhcurveto
            4 hlineto
            64 30 32 75 191 callsubr
            -8 -85 callsubr
            -11 vlineto
            -63 -18 -23 -52 vhcurveto
            -4 hlineto
            -49 -18 23 63 191 callsubr
            -10 -85 callsubr
            endchar
          </CharString>
          <CharString index="125">
            hlineto
            7 2 -3 -5 hvcurveto
            -142 224 callgsubr
            117 callgsubr
            return
          </CharString>
          <CharString index="126">
            -26 40 216 callgsubr
            154 callsubr
            -347 4 hlineto
            344 576 rlineto
            2 3 0 3 2 vvcurveto
            19 -103 callgsubr
            -353 -91 callsubr
            327 -4 hlineto
            -344 -577 rlineto
            330 callgsubr
            -4 vvcurveto
            return
          </CharString>
          <CharString index="127">
            53 53 83 hvcurveto
            return
          </CharString>
          <CharString index="128">
            hlineto
            -98 callgsubr
            12 hlineto
            -83 callgsubr
            return
          </CharString>
          <CharString index="129">
            179 callsubr
            42 -54 callgsubr
            return
          </CharString>
          <CharString index="130">
            150 callgsubr
            -326 -46 callsubr
            return
          </CharString>
          <CharString index="131">
            41 324 hmoveto
            -9 callsubr
            169 vlineto
            12 -8 7 -10 vhcurveto
            -150 -91 callsubr
            129 -100 callsubr
            -151 -18 callgsubr
            -110 144 callgsubr
            110 181 callgsubr
            -110 16 callsubr
            return
          </CharString>
          <CharString index="132">
            -50 81 vhcurveto
            return
          </CharString>
          <CharString index="133">
            44 vhcurveto
            27 -106 callgsubr
            return
          </CharString>
          <CharString index="134">
            -94 53 -36 72 vhcurveto
            8 callsubr
            return
          </CharString>
          <CharString index="135">
            204 callsubr
            369 vlineto
            69 47 35 65 vhcurveto
            72 69 callgsubr
            -74 hlineto
            -63 -29 -26 -26 -14 hvcurveto
            -4 return
          </CharString>
          <CharString index="136">
            -53 -17 callsubr
            return
          </CharString>
          <CharString index="137">
            -51 callsubr
            -37 hlineto
            37 -7 -27 20 -54 hhcurveto
            -115 -75 callsubr
            114 hlineto
            47 13 -14 -39 hvcurveto
            -5 -71 callgsubr
            -162 275 rlineto
            return
          </CharString>
          <CharString index="138">
            -100 callsubr
            -142 -64 callsubr
            return
          </CharString>
          <CharString index="139">
            67 141 callsubr
            return
          </CharString>
          <CharString index="140">
            -88 144 callsubr
            return
          </CharString>
          <CharString index="141">
            15 callgsubr
            endchar
          </CharString>
          <CharString index="142">
            -4 hlineto
            -29 -16 -10 -31 -47 vvcurveto
            return
          </CharString>
          <CharString index="143">
            rmoveto
            279 callsubr
            return
          </CharString>
          <CharString index="144">
            88 callsubr
            125 6 callsubr
            -369 -18 callgsubr
            return
          </CharString>
          <CharString index="145">
            41 68 hvcurveto
            return
          </CharString>
          <CharString index="146">
            229 callsubr
            206 244 callsubr
            -444 rmoveto
            63 29 26 26 14 hvcurveto
            4 -78 hlineto
            -26 callsubr
            -179 -91 callsubr
            179 193 callsubr
            498 -45 callsubr
            -206 277 callgsubr
            -208 -32 callgsubr
            return
          </CharString>
          <CharString index="147">
            -25 callgsubr
            -265 vlineto
            return
          </CharString>
          <CharString index="148">
            13 callsubr
            -119 vlineto
            73 callsubr
            return
          </CharString>
          <CharString index="149">
            4 hlineto
            -51 callgsubr
            return
          </CharString>
          <CharString index="150">
            503 -91 callgsubr
            return
          </CharString>
          <CharString index="151">
            -194 204 callsubr
            354 vlineto
            74 46 45 67 155 callgsubr
            -40 hlineto
            -66 -33 -34 -20 -11 hvcurveto
            -4 45 hlineto
            -93 callgsubr
            -492 vlineto
            -98 callgsubr
            return
          </CharString>
          <CharString index="152">
            hlineto
            114 callgsubr
            return
          </CharString>
          <CharString index="153">
            vlineto
            110 callgsubr
            return
          </CharString>
          <CharString index="154">
            -41 88 -147 rmoveto
            113 25 99 84 29 hvcurveto
            170 465 rlineto
            7 2 259 callgsubr
            -16 hlineto
            -74 callgsubr
            -2 hvcurveto
            -163 -445 rlineto
            -4 hlineto
            -163 445 267 callsubr
            -16 hlineto
            -74 callgsubr
            2 hvcurveto
            170 -465 rlineto
            -6 2 320 callgsubr
            -66 -26 -20 -80 -88 hhcurveto
            -29 -91 callsubr
            return
          </CharString>
          <CharString index="155">
            -9 callsubr
            117 callsubr
            return
          </CharString>
          <CharString index="156">
            7 -3 2 -5 vhcurveto
            -14 60 callgsubr
            return
          </CharString>
          <CharString index="157">
            77 7 callgsubr
            return
          </CharString>
          <CharString index="158">
            hlineto
            -27 callsubr
            return
          </CharString>
          <CharString index="159">
            hlineto
            -102 -133 -42 callsubr
            -102 133 rlineto
            return
          </CharString>
          <CharString index="160">
            -50 callsubr
            132 -34 callgsubr
            -38 callgsubr
            115 callgsubr
            return
          </CharString>
          <CharString index="161">
            -98 vlineto
            -59 26 -43 44 -21 vhcurveto
            -30 -14 -27 -29 -47 vvcurveto
            -11 vlineto
            -78 43 -38 81 vhcurveto
            65 hlineto
            81 51 47 83 hvcurveto
            221 38 callgsubr
            -74 callgsubr
            hvcurveto
            -30 99 callgsubr
            -78 -55 callsubr
            96 -28 callgsubr
            return
          </CharString>
          <CharString index="162">
            -69 vlineto
            -87 callsubr
            68 vlineto
            68 37 25 67 vhcurveto
            50 hlineto
            67 37 -25 -68 hvcurveto
            return
          </CharString>
          <CharString index="163">
            hlineto
            210 callgsubr
            156 callsubr
            hvcurveto
            -79 callsubr
            27 43 vhcurveto
            return
          </CharString>
          <CharString index="164">
            -87 callsubr
            99 85 callsubr
          </CharString>
          <CharString index="165">
            vlineto
            94 -53 36 -72 vhcurveto
            -93 -91 callsubr
            94 hlineto
            51 43 -22 -80 hvcurveto
            return
          </CharString>
          <CharString index="166">
            51 callgsubr
            -5 5 rlineto
            3 -3 -2 1 -3 hhcurveto
            -4 -4 -5 -4 -4 hvcurveto
            return
          </CharString>
          <CharString index="167">
            120 43 callgsubr
            return
          </CharString>
          <CharString index="168">
            hlineto
            -8 callsubr
            30 58 callsubr
            -114 -68 callgsubr
            40 -95 callgsubr
            return
          </CharString>
          <CharString index="169">
            hlineto
            81 55 55 181 callsubr
            -39 -43 -67 vhcurveto
            -86 hlineto
            -67 -39 43 68 hvcurveto
            72 vlineto
            68 31 41 67 vhcurveto
            157 hlineto
            34 15 18 28 hvcurveto
            return
          </CharString>
          <CharString index="170">
            -100 callgsubr
            339 -106 callgsubr
            return
          </CharString>
          <CharString index="171">
            -11 250 92 callgsubr
            236 vlineto
            197 389 rlineto
            6 3 -3 3 -5 hhcurveto
            -18 hlineto
            -74 callgsubr
            -3 hvcurveto
            -176 -350 rlineto
            -4 hlineto
            -176 350 rlineto
            7 -3 259 callgsubr
            -18 hlineto
            -5 -3 -3 -6 3 hvcurveto
            197 -389 rlineto
            -236 vlineto
            -98 callgsubr
            return
          </CharString>
          <CharString index="172">
            rmoveto
            73 callgsubr
            return
          </CharString>
          <CharString index="173">
            397 rmoveto
            -4 hlineto
            33 -18 -33 13 114 callsubr
            -4 hlineto
            53 -17 -48 17 -52 hhcurveto
            return
          </CharString>
          <CharString index="174">
            82 callgsubr
            vlineto
            return
          </CharString>
          <CharString index="175">
            292 callsubr
            -102 hlineto
            1 callgsubr
            33 hlineto
            47 35 14 34 18 hvcurveto
            4 -231 hlineto
            -98 callgsubr
            13 -92 callsubr
          </CharString>
          <CharString index="176">
            vlineto
            -58 -27 -21 -67 vhcurveto
            -96 hlineto
            -62 -22 21 68 hvcurveto
            9 -94 callsubr
            -10 vlineto
            return
          </CharString>
          <CharString index="177">
            -8 callsubr
            100 -48 callgsubr
            88 6 callsubr
            return
          </CharString>
          <CharString index="178">
            278 callgsubr
            -240 -14 callsubr
            121 35 callsubr
            return
          </CharString>
          <CharString index="179">
            rmoveto
            20 callgsubr
            -66 hlineto
            -78 -36 44 92 hvcurveto
            24 hlineto
            75 50 30 81 61 -35 return
          </CharString>
          <CharString index="180">
            -98 callgsubr
            21 hlineto
            -83 callgsubr
            return
          </CharString>
          <CharString index="181">
            rmoveto
            -68 -37 -33 -67 vhcurveto
            -7 hlineto
            -67 -37 33 68 hvcurveto
            144 vlineto
            68 37 33 67 vhcurveto
            7 hlineto
            67 37 -33 -68 hvcurveto
            return
          </CharString>
          <CharString index="182">
            83 hvcurveto
            123 vlineto
            83 -53 return
          </CharString>
          <CharString index="183">
            246 -76 callsubr
            350 hlineto
            180 callgsubr
            -260 -200 79 callsubr
            235 181 rlineto
            -182 vlineto
            -87 callsubr
            209 vlineto
            245 189 rlineto
            return
          </CharString>
          <CharString index="184">
            -5 -2 3 5 hvcurveto
            109 callgsubr
            return
          </CharString>
          <CharString index="185">
            598 rmoveto
            -105 callgsubr
            return
          </CharString>
          <CharString index="186">
            rlineto
            -11 -9 -6 -4 -6 220 callsubr
            9 6 5 5 6 hvcurveto
            return
          </CharString>
          <CharString index="187">
            rmoveto
            -71 callsubr
            return
          </CharString>
          <CharString index="188">
            -100 callsubr
            -397 return
          </CharString>
          <CharString index="189">
            -59 callgsubr
            348 vlineto
            12 callsubr
            return
          </CharString>
          <CharString index="190">
            rmoveto
            -23 callgsubr
            return
          </CharString>
          <CharString index="191">
            -7 callsubr
            -144 hlineto
            return
          </CharString>
          <CharString index="192">
            -94 callsubr
            endchar
          </CharString>
          <CharString index="193">
            rmoveto
            4 5 1 2 6 vvcurveto
            16 vlineto
            7 -5 5 -6 -7 vhcurveto
            -133 -138 rlineto
            -5 -6 -4 -3 -10 vvcurveto
            -14 vlineto
            -10 4 -3 5 -6 vhcurveto
            133 -138 rlineto
            6 -7 5 5 7 vvcurveto
            16 vlineto
            6 -1 2 -4 5 vhcurveto
            -125 130 rlineto
            return
          </CharString>
          <CharString index="194">
            622 rmoveto
            -50 25 -19 49 vhcurveto
            14 hlineto
            49 27 19 50 hvcurveto
            42 vlineto
            50 -27 18 -49 vhcurveto
            -14 hlineto
            -49 -25 -18 -50 hvcurveto
            24 -1 rmoveto
            36 15 10 35 vhcurveto
            14 hlineto
            36 15 -10 -36 hvcurveto
            -40 vlineto
            -37 -15 -10 -36 vhcurveto
            -14 hlineto
            -35 -15 10 37 hvcurveto
            return
          </CharString>
          <CharString index="195">
            -48 callsubr
            109 callsubr
            return
          </CharString>
          <CharString index="196">
            50 79 -29 54 hhcurveto
            26 30 5 10 23 hvcurveto
            12 5 4 3 6 vvcurveto
            9 vlineto
            6 -3 4 -5 vhcurveto
            -9 -35 -20 -42 -51 -74 29 -58 hhcurveto
            -26 -30 -5 -10 -23 hvcurveto
            -12 -5 -4 -3 -6 vvcurveto
            -9 vlineto
            -6 3 -4 5 vhcurveto
            9 35 20 42 hhcurveto
            return
          </CharString>
          <CharString index="197">
            vlineto
            58 27 19 67 vhcurveto
            129 -19 callsubr
            107 -95 callgsubr
            return
          </CharString>
          <CharString index="198">
            6 -4 -3 3 -7 hhcurveto
            return
          </CharString>
          <CharString index="199">
            -80 -42 -23 -51 vhcurveto
            return
          </CharString>
          <CharString index="200">
            -16 callgsubr
            -204 115 callsubr
          </CharString>
          <CharString index="201">
            vlineto
            141 callgsubr
            return
          </CharString>
          <CharString index="202">
            92 callgsubr
            685 vlineto
            116 callsubr
            return
          </CharString>
          <CharString index="203">
            vvcurveto
            -51 vlineto
            -83 43 -43 81 vhcurveto
            167 25 callgsubr
          </CharString>
          <CharString index="204">
            rlineto
            283 callsubr
            return
          </CharString>
          <CharString index="205">
            -100 callsubr
            -272 vlineto
            return
          </CharString>
          <CharString index="206">
            vlineto
            66 25 33 64 vhcurveto
            return
          </CharString>
          <CharString index="207">
            hlineto
            141 callgsubr
            49 33 15 34 18 hvcurveto
            4 -224 -43 callsubr
          </CharString>
          <CharString index="208">
            253 callgsubr
            156 callgsubr
            return
          </CharString>
          <CharString index="209">
            -5 callsubr
            -98 -32 callgsubr
            78 hlineto
            38 34 8 28 18 hvcurveto
            -83 callsubr
            return
          </CharString>
          <CharString index="210">
            620 74 297 rmoveto
            50 -20 callgsubr
            240 -106 callgsubr
            -498 152 callgsubr
            return
          </CharString>
          <CharString index="211">
            hlineto
            72 52 37 94 hvcurveto
            90 vlineto
            83 -43 37 -81 -81 -43 -37 -83 vhcurveto
            return
          </CharString>
          <CharString index="212">
            -128 -18 callgsubr
            -78 180 callsubr
            78 193 callsubr
            130 46 callsubr
            -96 hlineto
            -53 -24 -26 -23 -9 hvcurveto
            265 297 vlineto
            -104 callgsubr
            -319 -85 callsubr
            -307 vlineto
            -98 callgsubr
            18 hlineto
            20 -8 53 78 hhcurveto
            return
          </CharString>
          <CharString index="213">
            rmoveto
            -77 -27 39 68 68 27 39 77 77 27 -39 -68 -68 -27 -39 -77 hvcurveto
            218 242 -91 callgsubr
            return
          </CharString>
          <CharString index="214">
            25 -45 callsubr
            return
          </CharString>
          <CharString index="215">
            256 callsubr
            72 hlineto
            326 callgsubr
            -110 -378 208 callsubr
            685 -94 callsubr
            -236 -4 vlineto
            26 -14 -29 26 -63 hhcurveto
            -74 -26 callgsubr
            return
          </CharString>
          <CharString index="216">
            369 -48 callgsubr
            return
          </CharString>
          <CharString index="217">
            80 43 22 51 vhcurveto
            return
          </CharString>
          <CharString index="218">
            vlineto
            73 -43 31 -81 vhcurveto
            -81 hlineto
            -67 -27 15 58 58 27 15 67 hvcurveto
            159 hlineto
            9 7 8 10 hvcurveto
            117 212 callgsubr
          </CharString>
          <CharString index="219">
            165 callgsubr
            -2 287 callsubr
            return
          </CharString>
          <CharString index="220">
            -94 callsubr
            -625 vlineto
            -98 callgsubr
            return
          </CharString>
          <CharString index="221">
            -49 164 callsubr
            return
          </CharString>
          <CharString index="222">
            -91 callsubr
            endchar
          </CharString>
          <CharString index="223">
            -93 callgsubr
            -685 vlineto
            -98 callgsubr
            return
          </CharString>
          <CharString index="224">
            371 6 callgsubr
            return
          </CharString>
          <CharString index="225">
            119 callgsubr
            -51 vlineto
            -83 43 -43 81 vhcurveto
            return
          </CharString>
          <CharString index="226">
            90 callgsubr
            -124 25 97 callgsubr
            -74 vlineto
            -83 55 -55 81 vhcurveto
            return
          </CharString>
          <CharString index="227">
            vlineto
            58 27 20 67 vhcurveto
            return
          </CharString>
          <CharString index="228">
            15 -94 callsubr
            -14 -18 callgsubr
            -90 -55 callsubr
            60 -48 callgsubr
            150 -19 callsubr
            return
          </CharString>
          <CharString index="229">
            -87 callgsubr
            3 hvcurveto
            61 174 rlineto
            280 hlineto
            return
          </CharString>
          <CharString index="230">
            -75 callsubr
            182 return
          </CharString>
          <CharString index="231">
            hlineto
            176 callsubr
            return
          </CharString>
          <CharString index="232">
            hhcurveto
            135 callsubr
            return
          </CharString>
          <CharString index="233">
            -18 callgsubr
            178 callgsubr
            return
          </CharString>
          <CharString index="234">
            -50 callsubr
            272 -95 callgsubr
            return
          </CharString>
          <CharString index="235">
            -68 hvcurveto
            -121 vlineto
            -68 -37 return
          </CharString>
          <CharString index="236">
            92 callgsubr
            126 76 vlineto
            -104 callgsubr
            -76 471 hlineto
            -56 callsubr
            -29 hlineto
            -10 -5 -4 -7 -4 hvcurveto
            -278 -461 rlineto
            -4 -6 -2 -3 -7 vvcurveto
            -86 callsubr
            301 248 callgsubr
            -8 621 rmoveto
            -458 -276 vlineto
            endchar
          </CharString>
          <CharString index="237">
            rmoveto
            4 5 4 5 5 vvcurveto
            3 -1 1 -2 2 vhcurveto
            -5 4 rlineto
            2 -3 -1 1 -4 hhcurveto
            -4 -3 -5 -4 -4 hvcurveto
            return
          </CharString>
          <CharString index="238">
            vlineto
            63 29 33 65 vhcurveto
            return
          </CharString>
          <CharString index="239">
            hlineto
            -46 -21 16 27 -27 hvcurveto
            4 -4 -4 4 -4 hhcurveto
            -3 -2 -1 -3 -3 hvcurveto
            -3 -3 rlineto
            -2 -2 -1 -2 -3 vvcurveto
            -4 4 -5 4 -4 vhcurveto
            -24 23 30 -28 59 hhcurveto
            return
          </CharString>
          <CharString index="240">
            117 callgsubr
            90 hlineto
            81 247 callsubr
            return
          </CharString>
          <CharString index="241">
            185 callsubr
            28 28 callgsubr
            -28 vlineto
            -98 callgsubr
            return
          </CharString>
          <CharString index="242">
            -46 127 callsubr
            return
          </CharString>
          <CharString index="243">
            vlineto
            92 callsubr
            return
          </CharString>
          <CharString index="244">
            -77 20 -46 84 52 callgsubr
            -66 -8 37 58 64 17 33 66 hvcurveto
            42 hlineto
            107 19 -93 -100 46 hvcurveto
            -5 2 3 -2 3 317 callgsubr
            1 2 hvcurveto
            7 4 rlineto
            4 2 1 3 2 vvcurveto
            1 -1 4 -2 4 vhcurveto
            78 -36 -30 128 -129 hhcurveto
            return
          </CharString>
          <CharString index="245">
            -9 callsubr
            238 6 callgsubr
            return
          </CharString>
          <CharString index="246">
            -45 -15 -20 -34 -59 vvcurveto
            return
          </CharString>
          <CharString index="247">
            hlineto
            7 3 197 callgsubr
            return
          </CharString>
          <CharString index="248">
            37 -38 -68 hvcurveto
            return
          </CharString>
          <CharString index="249">
            hhcurveto
            -50 hlineto
            -81 -53 -37 -83 hvcurveto
            55 callsubr
            return
          </CharString>
          <CharString index="250">
            315 callsubr
            173 callgsubr
            return
          </CharString>
          <CharString index="251">
            58 -55 86 vhcurveto
            return
          </CharString>
          <CharString index="252">
            vhcurveto
            -130 -91 callsubr
            return
          </CharString>
          <CharString index="253">
            hlineto
            -21 callsubr
            93 -106 callgsubr
            return
          </CharString>
          <CharString index="254">
            145 callgsubr
            -61 -29 -38 return
          </CharString>
          <CharString index="255">
            vlineto
            83 -49 37 -81 return
          </CharString>
          <CharString index="256">
            38 callgsubr
            -74 callgsubr
            hvcurveto
            -30 99 callgsubr
            -78 -55 callsubr
            76 -28 callgsubr
            91 -106 callgsubr
            endchar
          </CharString>
          <CharString index="257">
            35 callsubr
            -29 270 callgsubr
            117 hlineto
            return
          </CharString>
          <CharString index="258">
            174 callsubr
            -36 -36 -30 -10 -48 hhcurveto
            return
          </CharString>
          <CharString index="259">
            vvcurveto
            -123 vlineto
            1 callgsubr
            -12 callgsubr
            -88 callgsubr
            hvcurveto
            return
          </CharString>
          <CharString index="260">
            219 callsubr
            -55 18 -34 47 -17 vhcurveto
            -4 vlineto
            return
          </CharString>
          <CharString index="261">
            373 -104 callsubr
            return
          </CharString>
          <CharString index="262">
            -71 callsubr
            -224 hlineto
            171 callgsubr
            return
          </CharString>
          <CharString index="263">
            -20 6 -27 8 -24 return
          </CharString>
          <CharString index="264">
            hhcurveto
            -7 hlineto
            -81 -53 -46 -83 hvcurveto
            -145 vlineto
            -83 53 -45 81 vhcurveto
            7 hlineto
            59 42 24 46 18 hvcurveto
            -46 18 42 -24 59 hhcurveto
            7 hlineto
            return
          </CharString>
          <CharString index="265">
            hlineto
            -110 -143 103 callgsubr
            14 195 callsubr
            110 146 rlineto
            5 hlineto
            110 -146 rlineto
            -6 5 4 -4 6 hhcurveto
            -84 callsubr
            5 3 -2 3 -2 3 hvcurveto
            -110 143 rlineto
            return
          </CharString>
          <CharString index="266">
            hlineto
            81 48 53 83 hvcurveto
            66 vlineto
            68 -18 40 -43 15 vhcurveto
            4 vlineto
            36 19 18 38 57 vvcurveto
            return
          </CharString>
          <CharString index="267">
            -100 callsubr
            -193 -4 vlineto
            33 -18 -33 13 114 callsubr
            return
          </CharString>
          <CharString index="268">
            vvcurveto
            -5 -94 callgsubr
            return
          </CharString>
          <CharString index="269">
            hhcurveto
            -96 callgsubr
            38 25 66 67 37 -28 -78 vhcurveto
            return
          </CharString>
          <CharString index="270">
            -104 callsubr
            endchar
          </CharString>
          <CharString index="271">
            hhcurveto
            216 callsubr
            return
          </CharString>
          <CharString index="272">
            hlineto
            14 callgsubr
            return
          </CharString>
          <CharString index="273" raw="1">
            1f720729 1d0b  
          </CharString>
          <CharString index="274">
            55 callsubr
            -83 vlineto
            return
          </CharString>
          <CharString index="275">
            0 -25 -14 -55 -46 vhcurveto
            -79 -66 33 callgsubr
            16 hlineto
            7 5 321 callsubr
            106 88 return
          </CharString>
          <CharString index="276">
            hvcurveto
            -497 -18 callgsubr
            return
          </CharString>
          <CharString index="277">
            vhcurveto
            146 -3 rlineto
            136 callgsubr
            -146 -5 4 174 rlineto
            -93 callgsubr
            4 -174 -146 5 rlineto
            241 callgsubr
            return
          </CharString>
          <CharString index="278">
            rmoveto
            283 callsubr
            182 182 rlineto
            4 4 5 5 6 vvcurveto
            2 -1 3 -3 3 vhcurveto
            -3 3 rlineto
            2 -2 -2 1 -3 hhcurveto
            -4 -3 -2 -4 -4 hvcurveto
            endchar
          </CharString>
          <CharString index="279">
            rmoveto
            226 callgsubr
            28 248 callsubr
          </CharString>
          <CharString index="280">
            vlineto
            66 35 40 64 vhcurveto
            68 -104 callsubr
            return
          </CharString>
          <CharString index="281">
            rrcurveto
            59 callsubr
            return
          </CharString>
          <CharString index="282">
            -104 callgsubr
            -142 -26 callgsubr
            return
          </CharString>
          <CharString index="283">
            -106 callsubr
            84 220 callgsubr
            1 callgsubr
            return
          </CharString>
          <CharString index="284">
            hlineto
            -49 -37 -17 -32 -14 hvcurveto
            -4 return
          </CharString>
          <CharString index="285">
            171 callgsubr
            171 vlineto
            return
          </CharString>
          <CharString index="286">
            -67 -35 31 68 hvcurveto
            return
          </CharString>
          <CharString index="287">
            -55 callsubr
            39 -94 callsubr
            -40 -32 callgsubr
            return
          </CharString>
          <CharString index="288">
            83 hvcurveto
            48 -94 callsubr
            -47 vlineto
            -68 return
          </CharString>
          <CharString index="289">
            284 -91 callgsubr
            return
          </CharString>
          <CharString index="290">
            302 -91 callgsubr
            return
          </CharString>
          <CharString index="291">
            rmoveto
            -51 callgsubr
            return
          </CharString>
          <CharString index="292">
            rmoveto
            -83 callgsubr
            return
          </CharString>
          <CharString index="293">
            182 callgsubr
            -23 -15 -11 81 callgsubr
            return
          </CharString>
          <CharString index="294">
            rlineto
            -3 -3 -1 return
          </CharString>
          <CharString index="295">
            291 callgsubr
            171 166 callgsubr
            return
          </CharString>
          <CharString index="296">
            -83 51 -43 81 vhcurveto
            return
          </CharString>
          <CharString index="297">
            -106 callsubr
            121 150 callsubr
            return
          </CharString>
          <CharString index="298">
            hvcurveto
            12 -45 callsubr
            return
          </CharString>
          <CharString index="299">
            vlineto
            189 callsubr
            return
          </CharString>
          <CharString index="300">
            hlineto
            -9 callsubr
            return
          </CharString>
          <CharString index="301">
            rmoveto
            6 -2 4 -7 vhcurveto
            -17 hlineto
            -7 -2 -4 -6 hvcurveto
            7 -182 rlineto
            -7 4 -3 5 vhcurveto
            3 hlineto
            5 return
          </CharString>
          <CharString index="302">
            305 callsubr
            6 5 hvcurveto
            return
          </CharString>
          <CharString index="303">
            -222 -192 vlineto
            -85 callgsubr
            191 return
          </CharString>
          <CharString index="304">
            10 callsubr
            223 return
          </CharString>
          <CharString index="305">
            -64 hvcurveto
            5 callsubr
            return
          </CharString>
          <CharString index="306">
            hlineto
            -63 -31 28 61 hvcurveto
            return
          </CharString>
          <CharString index="307">
            -91 callgsubr
            89 127 callgsubr
            -224 hlineto
            122 callgsubr
            return
          </CharString>
          <CharString index="308">
            12 hlineto
            5 3 return
          </CharString>
          <CharString index="309">
            224 callgsubr
            -62 -32 callgsubr
            90 hlineto
            return
          </CharString>
          <CharString index="310">
            vlineto
            -98 callsubr
            return
          </CharString>
          <CharString index="311">
            102 92 callgsubr
            return
          </CharString>
          <CharString index="312">
            177 callgsubr
            117 hlineto
            return
          </CharString>
          <CharString index="313">
            -7 -1 623 11 callsubr
            return
          </CharString>
          <CharString index="314">
            -104 322 629 rmoveto
            8 3 -2 6 -7 281 callsubr
            -3 -3 -8 -3 hvcurveto
            -218 -620 rlineto
            -8 -3 5 -4 6 hhcurveto
            13 hlineto
            6 4 3 8 3 hvcurveto
            endchar
          </CharString>
          <CharString index="315">
            rmoveto
            63 29 26 26 14 hvcurveto
            4 -43 hlineto
            -87 callsubr
            return
          </CharString>
          <CharString index="316">
            214 callgsubr
            -6 192 callsubr
            return
          </CharString>
          <CharString index="317">
            -81 -49 -37 -83 return
          </CharString>
          <CharString index="318">
            rmoveto
            134 callgsubr
            return
          </CharString>
          <CharString index="319">
            11 callsubr
            -98 vlineto
            return
          </CharString>
          <CharString index="320">
            hlineto
            33 callsubr
            231 callsubr
            return
          </CharString>
          <CharString index="321">
            183 -91 callgsubr
            return
          </CharString>
          <CharString index="322">
            rrcurveto
            4 vlineto
            47 17 23 44 55 vvcurveto
            return
          </CharString>
          <CharString index="323">
            -54 -46 187 callgsubr
            return
          </CharString>
          <CharString index="324">
            hlineto
            -5 -3 -3 -4 return
          </CharString>
          <CharString index="325">
            67 27 -19 -58 hvcurveto
            return
          </CharString>
          <CharString index="326">
            35 callsubr
            -34 vlineto
            return
          </CharString>
          <CharString index="327">
            161 callsubr
            13 hlineto
            return
          </CharString>
          <CharString index="328">
            21 68 hvcurveto
            9 -94 callsubr
            -10 vlineto
            -83 return
          </CharString>
          <CharString index="329">
            623 rmoveto
            -13 -3 2 11 -7 hvcurveto
            -150 222 72 callgsubr
            54 -79 return
          </CharString>
          <CharString index="330">
            -185 263 300 callgsubr
            -214 115 callsubr
          </CharString>
          <CharString index="331">
            hmoveto
            48 callsubr
            return
          </CharString>
          <CharString index="332">
            hlineto
            -67 -27 20 58 hvcurveto
            return
          </CharString>
          <CharString index="333">
            196 634 -196 hlineto
            236 -185 rmoveto
            196 185 -196 hlineto
            return
          </CharString>
          <CharString index="334">
            hlineto
            -87 callgsubr
            -2 hvcurveto
            return
          </CharString>
          <CharString index="335">
            623 116 callgsubr
            return
          </CharString>
          <CharString index="336">
            rmoveto
            80 callgsubr
            return
          </CharString>
          <CharString index="337">
            hlineto
            240 callgsubr
            return
          </CharString>
          <CharString index="338">
            96 -37 callgsubr
            return
          </CharString>
          <CharString index="339">
            hvcurveto
            6 -45 callsubr
            return
          </CharString>
          <CharString index="340" raw="1">
            fb0c0629 1d0b  
          </CharString>
          <CharString index="341">
            -45 callgsubr
            48 return
          </CharString>
          <CharString index="342">
            hlineto
            -97 callsubr
            464 17 160 callgsubr
            return
          </CharString>
          <CharString index="343">
            hhcurveto
            58 -104 callsubr
            -58 hlineto
            return
          </CharString>
          <CharString index="344">
            -84 callgsubr
            -6 vlineto
            return
          </CharString>
          <CharString index="345">
            178 rmoveto
            -26 callsubr
            -90 -15 callgsubr
            90 hlineto
            67 37 -41 -68 hvcurveto
            return
          </CharString>
          <CharString index="346">
            93 rmoveto
            38 34 8 28 18 hvcurveto
            4 -109 hlineto
            return
          </CharString>
          <CharString index="347">
            -71 callsubr
            -189 hlineto
            210 callgsubr
            return
          </CharString>
          <CharString index="348">
            vlineto
            -8 callgsubr
            return
          </CharString>
          <CharString index="349">
            rmoveto
            -65 -47 35 69 hvcurveto
            246 vlineto
            69 47 35 65 vhcurveto
            72 88 callgsubr
            return
          </CharString>
          <CharString index="350">
            39 173 369 rmoveto
            -43 27 -38 38 66 vvcurveto
            73 28 25 71 71 24 -25 -73 -52 -26 -51 -60 -39 vhcurveto
            -5 -3 rlineto
            return
          </CharString>
          <CharString index="351">
            -48 callgsubr
            175 -100 callsubr
            -110 return
          </CharString>
          <CharString index="352">
            hvcurveto
            5 -3 -2 2 -3 hhcurveto
            -3 -2 -1 -1 -2 hvcurveto
            -8 -4 rlineto
            -4 -2 -1 -3 -2 vvcurveto
            -1 1 -4 2 -4 vhcurveto
            return
          </CharString>
          <CharString index="353">
            316 callsubr
            53 vlineto
            126 35 34 26 callsubr
            -27 return
          </CharString>
          <CharString index="354">
            20 callsubr
            94 callgsubr
            return
          </CharString>
          <CharString index="355">
            -45 callsubr
            endchar
          </CharString>
          <CharString index="356">
            vlineto
            -5 -2 -3 -7 298 callsubr
            46 -100 callsubr
            return
          </CharString>
          <CharString index="357">
            285 callsubr
            -63 -29 -26 -26 -14 hvcurveto
            -4 return
          </CharString>
          <CharString index="358">
            -95 callgsubr
            183 hlineto
            return
          </CharString>
          <CharString index="359">
            hlineto
            7 326 callsubr
            return
          </CharString>
          <CharString index="360">
            hlineto
            67 27 -31 -68 hvcurveto
            return
          </CharString>
          <CharString index="361">
            -61 callgsubr
            65 264 callsubr
            -65 12 callgsubr
            return
          </CharString>
          <CharString index="362">
            -26 callsubr
            -90 -55 callsubr
            70 312 callgsubr
            return
          </CharString>
          <CharString index="363">
            388 132 rmoveto
            -69 -47 -35 -65 vhcurveto
            -72 45 callsubr
            return
          </CharString>
          <CharString index="364">
            -100 callsubr
            -162 136 callsubr
            return
          </CharString>
          <CharString index="365">
            136 rlineto
            5 hlineto
            return
          </CharString>
          <CharString index="366">
            153 callsubr
            -45 -15 -20 -34 -59 vvcurveto
            return
          </CharString>
          <CharString index="367">
            -95 callgsubr
            215 294 callgsubr
          </CharString>
          <CharString index="368" raw="1">
            fb7b0684 0b  
          </CharString>
          <CharString index="369">
            vlineto
            -68 -29 -14 -48 vhcurveto
            267 callgsubr
            return
          </CharString>
          <CharString index="370">
            hlineto
            51 43 -22 -80 hvcurveto
            -99 3 callsubr
            return
          </CharString>
          <CharString index="371">
            -34 callgsubr
            105 hlineto
            32 callsubr
            return
          </CharString>
          <CharString index="372">
            vhcurveto
            -16 hlineto
            -101 callsubr
            return
          </CharString>
          <CharString index="373">
            234 callgsubr
            149 return
          </CharString>
          <CharString index="374">
            rlineto
            192 callgsubr
            return
          </CharString>
          <CharString index="375">
            5 hhcurveto
            8 hlineto
            5 return
          </CharString>
          <CharString index="376">
            46 158 rlineto
            10 -80 callsubr
            -8 hhcurveto
            -8 hlineto
            -8 -3 -4 -7 -2 hvcurveto
            -47 -162 rlineto
            return
          </CharString>
          <CharString index="377">
            -51 callsubr
            -56 hlineto
            -101 callsubr
            return
          </CharString>
          <CharString index="378">
            -91 callgsubr
            351 -100 callsubr
            return
          </CharString>
          <CharString index="379">
            -55 callsubr
            75 -48 callgsubr
            150 -19 callsubr
            return
          </CharString>
          <CharString index="380">
            -56 callsubr
            -17 -85 callsubr
            return
          </CharString>
          <CharString index="381">
            -85 callsubr
            -42 vlineto
            -104 return
          </CharString>
          <CharString index="382">
            vlineto
            20 callgsubr
            return
          </CharString>
          <CharString index="383">
            305 callgsubr
            63 return
          </CharString>
          <CharString index="384">
            -26 callsubr
            -80 -55 callsubr
            136 -48 callgsubr
            return
          </CharString>
          <CharString index="385">
            rmoveto
            -61 callgsubr
            234 vlineto
            245 -284 rlineto
            -36 -16 -33 -20 -46 hhcurveto
            return
          </CharString>
          <CharString index="386">
            -106 callsubr
            345 -100 callsubr
            return
          </CharString>
          <CharString index="387">
            99 callsubr
            24 -106 callgsubr
            return
          </CharString>
          <CharString index="388">
            hhcurveto
            -14 hlineto
            -7 return
          </CharString>
          <CharString index="389">
            204 60 callsubr
            return
          </CharString>
          <CharString index="390">
            30 callgsubr
            15 123 callgsubr
            return
          </CharString>
          <CharString index="391">
            301 callsubr
            7 2 return
          </CharString>
          <CharString index="392">
            6 callgsubr
            -74 hlineto
            return
          </CharString>
          <CharString index="393">
            112 92 callgsubr
            return
          </CharString>
          <CharString index="394">
            3 -3 9 hvcurveto
            -8 23 return
          </CharString>
          <CharString index="395">
            rlineto
            -7 -3 -79 callgsubr
            vvcurveto
            -20 vlineto
            -93 callsubr
            -3 vhcurveto
            352 return
          </CharString>
          <CharString index="396">
            21 3 18 7 15 vhcurveto
            232 -242 rlineto
            -33 -16 -33 -17 -45 hhcurveto
            return
          </CharString>
          <CharString index="397">
            rlineto
            7 3 -64 callgsubr
            vvcurveto
            20 vlineto
            -86 callgsubr
            3 vhcurveto
            -352 return
          </CharString>
          <CharString index="398">
            -4 hlineto
            266 callgsubr
            return
          </CharString>
          <CharString index="399">
            307 callgsubr
            111 return
          </CharString>
          <CharString index="400">
            193 callsubr
            499 vlineto
            5 -3 3 -5 vhcurveto
            endchar
          </CharString>
          <CharString index="401">
            hlineto
            -101 callsubr
            endchar
          </CharString>
          <CharString index="402">
            512 -91 callgsubr
            return
          </CharString>
          <CharString index="403">
            -198 hlineto
            -87 callsubr
            return
          </CharString>
          <CharString index="404">
            rlineto
            7 4 -64 callgsubr
            vvcurveto
            15 vlineto
            5 -2 4 -7 -4 vhcurveto
            return
          </CharString>
          <CharString index="405">
            vhcurveto
            -46 -91 callsubr
            return
          </CharString>
          <CharString index="406">
            rlineto
            -7 -4 -79 callgsubr
            vvcurveto
            -16 vlineto
            -93 callsubr
            4 vhcurveto
            return
          </CharString>
          <CharString index="407">
            -123 vlineto
            276 callsubr
            return
          </CharString>
          <CharString index="408">
            -95 callgsubr
            274 hlineto
            return
          </CharString>
          <CharString index="409">
            -32 callgsubr
            100 return
          </CharString>
          <CharString index="410">
            81 hlineto
            81 43 33 73 hvcurveto
            return
          </CharString>
          <CharString index="411">
            -21 vlineto
            17 -21 180 return
          </CharString>
          <CharString index="412">
            hlineto
            6 4 4 return
          </CharString>
          <CharString index="413">
            -71 callsubr
            -189 hlineto
            -61 -29 -38 -60 -16 2 return
          </CharString>
          <CharString index="414">
            9 231 callgsubr
            return
          </CharString>
          <CharString index="415">
            -19 callsubr
            117 -95 callgsubr
            return
          </CharString>
          <CharString index="416">
            -4 -4 -4 -4 return
          </CharString>
          <CharString index="417">
            rmoveto
            -98 callsubr
            return
          </CharString>
          <CharString index="418">
            -100 callsubr
            -99 -64 callsubr
            return
          </CharString>
          <CharString index="419">
            171 callgsubr
            260 -95 callgsubr
            return
          </CharString>
          <CharString index="420">
            -100 callsubr
            -147 return
          </CharString>
          <CharString index="421">
            29 -20 -37 11 -43 hhcurveto
            -50 hlineto
            return
          </CharString>
          <CharString index="422">
            210 callsubr
            hvcurveto
            return
          </CharString>
          <CharString index="423">
            -5 -1 -44 callsubr
            return
          </CharString>
          <CharString index="424">
            -625 rlineto
            -7 return
          </CharString>
          <CharString index="425">
            hlineto
            -98 callgsubr
            endchar
          </CharString>
          <CharString index="426">
            -55 callsubr
            endchar
          </CharString>
          <CharString index="427">
            rmoveto
            -84 callgsubr
            return
          </CharString>
          <CharString index="428">
            5 4 5 hvcurveto
            return
          </CharString>
          <CharString index="429">
            -215 vlineto
            178 callsubr
            return
          </CharString>
          <CharString index="430">
            -75 callgsubr
            -596 vlineto
            -98 callgsubr
            return
          </CharString>
          <CharString index="431">
            -99 callsubr
            -381 return
          </CharString>
          <CharString index="432">
            -16 -17 -29 -43 vvcurveto
            return
          </CharString>
          <CharString index="433">
            2 3 7 hvcurveto
            return
          </CharString>
          <CharString index="434">
            25 26 -18 19 -26 -25 -19 -19 -26 vhcurveto
            return
          </CharString>
          <CharString index="435">
            hhcurveto
            215 callgsubr
            return
          </CharString>
          <CharString index="436">
            -269 rmoveto
            31 vlineto
            83 -53 51 -81 vhcurveto
            return
          </CharString>
          <CharString index="437">
            vhcurveto
            -61 hlineto
            -67 return
          </CharString>
        <CharString name=".notdef">
          253 180 hmoveto
          390 701 -390 hlineto
          54 -50 rmoveto
          282 -601 -282 hlineto
          endchar
        </CharString>
        <CharString name="A">
          -55 callgsubr
          endchar
        </CharString>
        <CharString name="AE">
          274 376 607 rmoveto
          4 -394 -228 hlineto
          -128 -213 rmoveto
          -87 callgsubr
          4 hvcurveto
          99 174 rlineto
          245 -174 hlineto
          -98 callgsubr
          304 hlineto
          -56 callgsubr
          -322 hlineto
          -6 -4 -2 -7 -4 hvcurveto
          -355 -625 rlineto
          -6 -3 2 -3 5 hhcurveto
          endchar
        </CharString>
        <CharString name="Aacute">
          -55 callgsubr
          307 836 -67 callsubr
        </CharString>
        <CharString name="Abreve">
          -55 callgsubr
          130 827 17 callsubr
        </CharString>
        <CharString name="Acircumflex">
          -55 callgsubr
          250 827 -43 callgsubr
        </CharString>
        <CharString name="Adieresis">
          -55 callgsubr
          289 716 rmoveto
          -59 callsubr
        </CharString>
        <CharString name="Agrave">
          -55 callgsubr
          161 827 -10 callsubr
        </CharString>
        <CharString name="Amacron">
          -55 callgsubr
          328 757 93 callsubr
        </CharString>
        <CharString name="Aogonek">
          29 134 213 rmoveto
          127 392 rlineto
          4 hlineto
          127 -392 rlineto
          -107 421 rmoveto
          192 callgsubr
          -24 hlineto
          -74 callgsubr
          -2 hvcurveto
          -210 317 callsubr
          -2 310 callgsubr
          14 hlineto
          122 callsubr
          58 -165 -67 -84 rlineto
          -17 -14 6 -18 32 hhcurveto
          41 26 8 164 callgsubr
          14 227 callsubr
          endchar
        </CharString>
        <CharString name="Aring">
          -55 callgsubr
          219 715 167 callgsubr
        </CharString>
        <CharString name="Atilde">
          -55 callgsubr
          238 765 rmoveto
          -22 callsubr
          -39 vlineto
          198 callgsubr
          endchar
        </CharString>
        <CharString name="B">
          47 90 9 rmoveto
          -98 callgsubr
          237 86 callgsubr
          73 vlineto
          72 -49 45 -45 2 vhcurveto
          47 14 41 33 72 vvcurveto
          66 46 callsubr
          -231 -85 callsubr
          39 -295 217 callgsubr
          260 -95 callgsubr
          200 hlineto
          32 callsubr
          -64 vlineto
          -68 -41 -38 -67 vhcurveto
          -196 -311 217 callgsubr
          267 -95 callgsubr
          196 hlineto
          77 141 callsubr
          -71 319 callgsubr
        </CharString>
        <CharString name="C">
          49 callgsubr
          endchar
        </CharString>
        <CharString name="CR">
          -217 endchar
        </CharString>
        <CharString name="Cacute">
          49 callgsubr
          135 836 -67 callsubr
        </CharString>
        <CharString name="Ccaron">
          49 callgsubr
          60 707 -63 callgsubr
          endchar
        </CharString>
        <CharString name="Ccedilla">
          46 470 448 185 callsubr
          50 6 callgsubr
          -130 16 callsubr
          70 282 callgsubr
          -25 -15 -9 81 callgsubr
          46 50 rlineto
          26 hlineto
          189 callgsubr
          -130 144 callgsubr
          130 6 callsubr
          -49 vlineto
          -98 callgsubr
          endchar
        </CharString>
        <CharString name="D">
          149 callgsubr
          endchar
        </CharString>
        <CharString name="Dcaron">
          149 callgsubr
          -75 679 -63 callgsubr
          endchar
        </CharString>
        <CharString name="Dcroat">
          3 344 224 callsubr
          -246 -85 callsubr
          -236 249 callsubr
          -345 vlineto
          -98 callgsubr
          31 28 217 callgsubr
          318 -95 callgsubr
          166 -104 callsubr
          -166 hlineto
          -8 callsubr
          209 260 callsubr
        </CharString>
        <CharString name="E">
          -16 402 hmoveto
          -56 callgsubr
          -304 -85 callsubr
          -625 vlineto
          -98 callgsubr
          endchar
        </CharString>
        <CharString name="Eacute">
          -16 402 hmoveto
          -56 callgsubr
          -304 -85 callsubr
          -625 vlineto
          -98 callgsubr
          221 836 -67 callsubr
        </CharString>
        <CharString name="Ecaron">
          -16 402 hmoveto
          -56 callgsubr
          -304 -85 callsubr
          -625 vlineto
          -98 callgsubr
          147 707 -63 callgsubr
          endchar
        </CharString>
        <CharString name="Ecircumflex">
          -16 402 hmoveto
          -56 callgsubr
          -304 -85 callsubr
          -625 vlineto
          -98 callgsubr
          176 827 -43 callgsubr
        </CharString>
        <CharString name="Edieresis">
          -16 402 hmoveto
          -56 callgsubr
          -304 -85 callsubr
          -625 vlineto
          -98 callgsubr
          215 716 rmoveto
          -59 callsubr
        </CharString>
        <CharString name="Edotaccent">
          3 402 hmoveto
          -56 callgsubr
          -304 -85 callsubr
          -625 vlineto
          -98 callgsubr
          137 722 rmoveto
          57 callsubr
        </CharString>
        <CharString name="Egrave">
          -16 402 hmoveto
          -56 callgsubr
          -304 -85 callsubr
          -625 vlineto
          -98 callgsubr
          105 827 -10 callsubr
        </CharString>
        <CharString name="Emacron">
          -16 402 hmoveto
          -56 callgsubr
          -304 -85 callsubr
          -625 vlineto
          -98 callgsubr
          254 757 93 callsubr
        </CharString>
        <CharString name="Eogonek">
          -16 402 615 -16 callgsubr
          -304 -85 callsubr
          -625 vlineto
          -98 callgsubr
          221 hlineto
          -52 -66 rlineto
          -17 -14 6 -18 32 hhcurveto
          41 26 8 164 callgsubr
          54 hlineto
          128 callgsubr
          hlineto
          -8 callsubr
          270 -95 callgsubr
          247 -104 callsubr
          -247 hlineto
          -8 callsubr
          257 -95 callgsubr
          endchar
        </CharString>
        <CharString name="Eth">
          3 344 224 callsubr
          -246 -85 callsubr
          -286 249 callsubr
          -295 vlineto
          -98 callgsubr
          31 28 217 callgsubr
          268 -95 callgsubr
          166 -104 callsubr
          -166 hlineto
          -8 callsubr
          259 260 callsubr
        </CharString>
        <CharString name="Euro">
          20 313 hmoveto
          81 53 50 83 hvcurveto
          29 -94 callsubr
          -28 12 callgsubr
          -65 -50 callsubr
          113 176 vlineto
          -104 callgsubr
          -176 92 176 -104 callsubr
          -176 114 207 callgsubr
          -115 -65 203 callsubr
          65 -92 -65 -91 callsubr
          65 -114 hlineto
          1 callgsubr
          endchar
        </CharString>
        <CharString name="F">
          -35 286 callsubr
          288 -95 callgsubr
          247 -104 callsubr
          -247 hlineto
          -8 callsubr
          266 vlineto
          5 2 3 7 vhcurveto
          274 -104 callsubr
          -305 -85 callsubr
          -625 vlineto
          -98 callgsubr
          endchar
        </CharString>
        <CharString name="G">
          24 callsubr
          endchar
        </CharString>
        <CharString name="Gbreve">
          24 callsubr
          -40 827 17 callsubr
        </CharString>
        <CharString name="H">
          71 286 callsubr
          297 -95 callgsubr
          310 -100 callsubr
          -297 vlineto
          280 callgsubr
          -14 hlineto
          -74 callgsubr
          hvcurveto
          -284 -64 callsubr
          -310 hlineto
          -8 callsubr
          284 113 callsubr
          endchar
        </CharString>
        <CharString name="I">
          -277 125 634 42 callgsubr
          endchar
        </CharString>
        <CharString name="Iacute">
          -276 125 634 42 callgsubr
          61 827 -67 callsubr
        </CharString>
        <CharString name="Icircumflex">
          -277 125 634 42 callgsubr
          9 818 -43 callgsubr
        </CharString>
        <CharString name="Idieresis">
          -277 125 634 42 callgsubr
          48 707 rmoveto
          -59 callsubr
        </CharString>
        <CharString name="Idotaccent">
          -277 95 692 231 callgsubr
          99 -94 callsubr
          30 -157 42 callgsubr
          endchar
        </CharString>
        <CharString name="Igrave">
          -277 125 634 42 callgsubr
          -75 818 -10 callsubr
        </CharString>
        <CharString name="Imacron">
          -277 125 634 42 callgsubr
          87 748 93 callsubr
        </CharString>
        <CharString name="Iogonek">
          -277 103 643 320 callsubr
          -617 vlineto
          -66 -83 rlineto
          -17 -14 6 -18 32 hhcurveto
          41 26 8 164 callgsubr
          7 233 callgsubr
          248 callsubr
        </CharString>
        <CharString name="J">
          -4 386 643 rmoveto
          -5 -3 -3 -6 169 callsubr
          -100 -55 callsubr
          79 -94 callsubr
          -80 302 callsubr
          293 callsubr
        </CharString>
        <CharString name="K">
          112 callgsubr
          endchar
        </CharString>
        <CharString name="L">
          66 callgsubr
          endchar
        </CharString>
        <CharString name="Lacute">
          66 callgsubr
          82 836 -67 callsubr
        </CharString>
        <CharString name="Lcaron">
          66 callgsubr
          255 634 -23 callsubr
          endchar
        </CharString>
        <CharString name="Lslash">
          3 413 hmoveto
          136 callgsubr
          -284 hlineto
          -8 callsubr
          380 vlineto
          106 60 297 callsubr
          -106 -60 rlineto
          184 -94 callsubr
          -201 vlineto
          -75 -43 299 callsubr
          75 43 rlineto
          -392 vlineto
          -98 callgsubr
          endchar
        </CharString>
        <CharString name="M">
          191 346 177 rmoveto
          -4 hlineto
          -209 462 rlineto
          2 -1 -2 2 -4 hhcurveto
          -28 60 callgsubr
          577 4 vlineto
          199 -438 rlineto
          -6 3 3 -2 6 hhcurveto
          19 hlineto
          6 3 2 6 3 hvcurveto
          198 437 rlineto
          4 -576 hlineto
          280 callgsubr
          -28 hlineto
          -4 -2 -2 -2 -1 hvcurveto
          endchar
        </CharString>
        <CharString name="N">
          22 callgsubr
          endchar
        </CharString>
        <CharString name="NULL">
          -497 endchar
        </CharString>
        <CharString name="Nacute">
          22 callgsubr
          277 836 -67 callsubr
        </CharString>
        <CharString name="Ncaron">
          81 284 707 -63 callgsubr
          -172 -707 rmoveto
          26 callgsubr
          endchar
        </CharString>
        <CharString name="Ntilde">
          22 callgsubr
          203 765 rmoveto
          -22 callsubr
          -39 vlineto
          198 callgsubr
          endchar
        </CharString>
        <CharString name="O">
          -32 callsubr
          endchar
        </CharString>
        <CharString name="OE">
          276 214 28 rmoveto
          88 callsubr
          149 -100 callsubr
          -571 -64 callsubr
          -283 108 rmoveto
          -38 callsubr
          470 hlineto
          -56 callgsubr
          -470 277 callgsubr
          endchar
        </CharString>
        <CharString name="Oacute">
          -32 callsubr
          6 808 -67 callsubr
        </CharString>
        <CharString name="Ocircumflex">
          -32 callsubr
          -39 799 -43 callgsubr
        </CharString>
        <CharString name="Odieresis">
          -32 callsubr
          688 vmoveto
          -59 callsubr
        </CharString>
        <CharString name="Ograve">
          -32 callsubr
          -118 799 -10 callsubr
        </CharString>
        <CharString name="Ohungarumlaut">
          -32 callsubr
          64 808 rmoveto
          -2 callgsubr
          -138 hmoveto
          -2 callgsubr
          endchar
        </CharString>
        <CharString name="Omacron">
          -32 callsubr
          39 729 93 callsubr
        </CharString>
        <CharString name="Oslash">
          56 443 137 rmoveto
          -26 callsubr
          -125 hlineto
          -46 -32 19 35 -15 hvcurveto
          321 446 rlineto
          1 -7 0 -7 -8 vvcurveto
          -333 hmoveto
          68 37 41 67 vhcurveto
          125 hlineto
          46 32 -19 -34 15 hvcurveto
          -321 -446 rlineto
          -1 7 0 7 7 vvcurveto
          384 496 rmoveto
          -5 3 -4 -1 -4 -6 -30 -41 rcurveline
          35 -23 -39 20 -50 hhcurveto
          -125 277 callgsubr
          -371 vlineto
          -19 3 -17 5 -16 vhcurveto
          -39 -54 -4 -6 0 -5 4 -3 rlinecurve
          9 -6 5 -3 4 1 4 5 rlinecurve
          31 43 rlineto
          -36 22 40 -20 50 hhcurveto
          125 193 callsubr
          371 vlineto
          19 -3 18 -5 16 vhcurveto
          38 53 4 5 1 5 -5 4 rlinecurve
          endchar
        </CharString>
        <CharString name="Otilde">
          -32 callsubr
          -51 737 rmoveto
          -22 callsubr
          -39 vlineto
          198 callgsubr
          endchar
        </CharString>
        <CharString name="P">
          26 129 276 217 callgsubr
          323 -95 callgsubr
          195 hlineto
          67 37 -41 128 callsubr
          -41 -67 vhcurveto
          -212 -276 185 callsubr
          231 -95 callgsubr
          195 hlineto
          81 53 53 75 callsubr
          53 -81 vhcurveto
          -226 -85 callsubr
          -625 vlineto
          -98 callgsubr
          endchar
        </CharString>
        <CharString name="Q">
          56 412 -133 rmoveto
          5 3 3 6 -4 hvcurveto
          -77 124 rlineto
          24 callgsubr
          90 hlineto
          77 -124 rlineto
          -8 5 4 -1 6 hhcurveto
          -182 161 rmoveto
          37 callsubr
          endchar
        </CharString>
        <CharString name="R">
          33 129 -30 callgsubr
          endchar
        </CharString>
        <CharString name="Racute">
          33 129 -30 callgsubr
          217 836 -67 callsubr
        </CharString>
        <CharString name="Rcaron">
          33 129 -30 callgsubr
          147 707 -63 callgsubr
          endchar
        </CharString>
        <CharString name="S">
          -11 callsubr
          endchar
        </CharString>
        <CharString name="Sacute">
          -11 callsubr
          261 660 -67 callsubr
        </CharString>
        <CharString name="Scaron">
          -11 callsubr
          189 531 -63 callgsubr
          endchar
        </CharString>
        <CharString name="T">
          41 callgsubr
          endchar
        </CharString>
        <CharString name="Tcaron">
          41 callgsubr
          3 707 -63 callgsubr
          endchar
        </CharString>
        <CharString name="Thorn">
          3 147 92 callgsubr
          116 -95 callgsubr
          124 193 callsubr
          105 6 callgsubr
          -124 hlineto
          -8 callsubr
          116 113 callsubr
          31 161 217 callgsubr
          305 -95 callgsubr
          124 6 callsubr
          -103 -18 callgsubr
          endchar
        </CharString>
        <CharString name="U">
          -34 callsubr
          endchar
        </CharString>
        <CharString name="Uacute">
          -34 callsubr
          -114 193 -67 callsubr
        </CharString>
        <CharString name="Ucircumflex">
          -34 callsubr
          -158 184 -43 callgsubr
        </CharString>
        <CharString name="Udieresis">
          -34 callsubr
          -119 73 rmoveto
          -59 callsubr
        </CharString>
        <CharString name="Ugrave">
          -34 callsubr
          -230 184 -10 callsubr
        </CharString>
        <CharString name="Uhungarumlaut">
          -34 callsubr
          -59 193 rmoveto
          -2 callgsubr
          -138 hmoveto
          -2 callgsubr
          endchar
        </CharString>
        <CharString name="Umacron">
          -34 callsubr
          -80 114 93 callsubr
        </CharString>
        <CharString name="Uogonek">
          53 443 643 rmoveto
          -5 -3 -3 -6 169 callsubr
          -112 -55 callsubr
          497 -94 callsubr
          -498 -32 callgsubr
          62 hlineto
          -52 -66 rlineto
          -17 -14 6 -18 32 hhcurveto
          41 26 8 164 callgsubr
          21 293 callsubr
        </CharString>
        <CharString name="Uring">
          -34 callsubr
          -188 72 167 callgsubr
        </CharString>
        <CharString name="V">
          -3 259 hmoveto
          -87 callgsubr
          2 hvcurveto
          194 625 rlineto
          7 2 259 callgsubr
          -15 hlineto
          -74 callgsubr
          -2 hvcurveto
          -183 -590 rlineto
          -4 hlineto
          -183 590 267 callsubr
          -15 hlineto
          -74 callgsubr
          2 hvcurveto
          194 317 callsubr
          2 310 callgsubr
          endchar
        </CharString>
        <CharString name="W">
          293 219 hmoveto
          5 3 3 6 2 hvcurveto
          164 590 rlineto
          4 hlineto
          164 -590 rlineto
          -6 2 4 -3 5 hhcurveto
          27 hlineto
          5 3 1 8 2 hvcurveto
          145 625 rlineto
          7 2 259 callgsubr
          -15 hlineto
          -5 -4 -1 -8 -2 hvcurveto
          -135 -596 rlineto
          -4 hlineto
          -168 596 rlineto
          7 -2 -3 2 -6 hhcurveto
          -19 hlineto
          -6 -3 -2 -7 -2 hvcurveto
          -167 -596 rlineto
          -4 hlineto
          -135 596 267 callsubr
          -14 hlineto
          -7 -2 -3 -6 1 hvcurveto
          145 317 callsubr
          2 4 -2 5 hhcurveto
          endchar
        </CharString>
        <CharString name="X">
          -3 426 7 rmoveto
          -5 3 310 callgsubr
          16 hlineto
          6 1 4 5 -3 hvcurveto
          -189 334 178 291 rlineto
          7 4 259 callgsubr
          -16 hlineto
          -6 -3 -2 -7 -4 hvcurveto
          -163 -269 rlineto
          -4 hlineto
          -164 269 rlineto
          7 -4 -4 2 -6 hhcurveto
          -14 hlineto
          -5 -3 -4 -5 3 hvcurveto
          179 -292 -190 -333 rlineto
          -5 -3 1 -4 6 hhcurveto
          16 hlineto
          5 3 2 5 3 hvcurveto
          176 310 rlineto
          4 hlineto
          endchar
        </CharString>
        <CharString name="Y">
          64 callsubr
          endchar
        </CharString>
        <CharString name="Yacute">
          64 callsubr
          79 836 -67 callsubr
        </CharString>
        <CharString name="Ydieresis">
          64 callsubr
          70 716 rmoveto
          -59 callsubr
        </CharString>
        <CharString name="Z">
          19 callsubr
          endchar
        </CharString>
        <CharString name="Zacute">
          19 callsubr
          281 811 -67 callsubr
        </CharString>
        <CharString name="Zcaron">
          19 callsubr
          206 682 -63 callgsubr
          endchar
        </CharString>
        <CharString name="Zdotaccent">
          19 callsubr
          200 697 rmoveto
          57 callsubr
        </CharString>
        <CharString name="a">
          1 -49 callsubr
          endchar
        </CharString>
        <CharString name="aacute">
          1 -49 callsubr
          124 703 -67 callsubr
        </CharString>
        <CharString name="abreve">
          1 -49 callsubr
          -32 694 17 callsubr
        </CharString>
        <CharString name="acircumflex">
          1 -49 callsubr
          81 694 -43 callgsubr
        </CharString>
        <CharString name="acute">
          -236 155 703 -67 callsubr
        </CharString>
        <CharString name="adieresis">
          1 -49 callsubr
          124 583 rmoveto
          -59 callsubr
        </CharString>
        <CharString name="ae">
          309 388 132 229 callsubr
          26 -48 callgsubr
          175 -100 callsubr
          318 -18 80 callsubr
          -270 hlineto
          -8 callsubr
          132 vlineto
          69 47 35 65 vhcurveto
          72 6 callsubr
          -288 -171 rmoveto
          -100 callgsubr
          300 252 callsubr
          154 285 callsubr
          -55 -46 -20 -49 -23 hvcurveto
          48 -21 -43 21 -56 hhcurveto
          -152 -91 callsubr
          152 6 callsubr
          -65 -64 callsubr
          -175 277 callgsubr
          -28 -32 callgsubr
          74 hlineto
          55 46 18 51 23 hvcurveto
          -50 21 43 -19 56 hhcurveto
          205 -104 callsubr
          -205 319 callsubr
        </CharString>
        <CharString name="agrave">
          1 -49 callsubr
          17 694 -10 callsubr
        </CharString>
        <CharString name="amacron">
          1 -49 callsubr
          172 627 rmoveto
          -105 callgsubr
          -204 -14 callsubr
          endchar
        </CharString>
        <CharString name="ampersand">
          95 214 28 rmoveto
          -61 callgsubr
          90 vlineto
          64 33 38 61 4 vhcurveto
          196 -225 rlineto
          -49 -9 -35 -28 -57 hhcurveto
          188 -22 rmoveto
          -4 4 4 -2 5 hhcurveto
          19 hlineto
          4 0 4 2 -2 hvcurveto
          -218 252 rlineto
          220 -104 callsubr
          -244 hlineto
          -67 77 rlineto
          -34 37 -9 24 44 vvcurveto
          41 -34 callgsubr
          22 hlineto
          67 37 -38 -68 296 callgsubr
          49 46 callsubr
          -22 hlineto
          -81 -53 -50 -83 hvcurveto
          -43 vlineto
          -48 15 -31 33 -39 vhcurveto
          -79 -2 -28 -64 -58 vvcurveto
          -92 vlineto
          1 callgsubr
          85 hlineto
          61 46 28 50 18 hvcurveto
          endchar
        </CharString>
        <CharString name="aogonek">
          1 204 28 rmoveto
          114 callgsubr
          175 -100 callsubr
          -342 vlineto
          -69 -47 -35 -65 vhcurveto
          -72 482 rmoveto
          -24 callgsubr
          74 hlineto
          63 29 26 26 14 hvcurveto
          4 -35 hlineto
          138 callgsubr
          endchar
        </CharString>
        <CharString name="apostrophemod">
          -320 107 634 -23 callsubr
          endchar
        </CharString>
        <CharString name="approxequal">
          15 164 403 rmoveto
          89 callsubr
          -163 vmoveto
          89 callsubr
          endchar
        </CharString>
        <CharString name="aring">
          1 169 87 callsubr
          85 -623 18 callgsubr
          -206 -26 callgsubr
          184 132 rmoveto
          -69 -47 -35 -65 vhcurveto
          -72 45 callsubr
          175 -100 callsubr
          endchar
        </CharString>
        <CharString name="asciicircum">
          -44 360 374 rmoveto
          -6 4 3 -3 7 hhcurveto
          10 hlineto
          8 3 5 7 -4 hvcurveto
          -134 255 rlineto
          7 -4 -5 4 -10 hhcurveto
          -23 hlineto
          -10 -5 -4 -7 -4 hvcurveto
          -134 -255 rlineto
          -7 -4 3 -5 8 hhcurveto
          10 hlineto
          7 3 3 6 4 hvcurveto
          133 252 rlineto
          endchar
        </CharString>
        <CharString name="asciitilde">
          15 164 325 rmoveto
          89 callsubr
          endchar
        </CharString>
        <CharString name="asterisk">
          -89 220 634 rmoveto
          -56 callsubr
          -15 -85 callsubr
          -17 vlineto
          -48 10 -44 5 -14 vhcurveto
          7 14 9 44 48 vvcurveto
          -101 -196 rmoveto
          -4 -6 1 -4 4 -2 12 -9 rcurveline
          5 -3 3 0 3 5 11 15 rcurveline
          28 38 17 42 5 14 -14 -7 -33 -30 -28 -39 rrcurveto
          -37 129 rmoveto
          -7 2 -3 -2 -1 -5 -5 -14 rcurveline
          -2 -5 2 -3 6 -2 17 -6 rcurveline
          -14 45 45 -4 15 hhcurveto
          -11 11 -39 22 -46 15 rrcurveto
          218 -26 rmoveto
          7 2 1 5 -2 4 -4 14 rcurveline
          -2 6 -2 1 -6 -2 -18 -5 rcurveline
          -46 -15 -38 -23 -12 -9 15 -3 45 6 45 14 rrcurveto
          -46 -126 rmoveto
          4 -6 4 1 4 3 12 8 rcurveline
          5 4 1 3 -4 4 -11 15 rcurveline
          -28 39 -34 29 -12 9 2 -15 19 -41 28 -39 rrcurveto
          endchar
        </CharString>
        <CharString name="at">
          258 480 217 rmoveto
          -69 -46 -35 -65 vhcurveto
          -1 -55 callsubr
          101 -48 callgsubr
          103 -100 callsubr
          41 -482 rmoveto
          295 callgsubr
          -111 -106 88 138 hvcurveto
          153 vlineto
          138 106 88 111 vhcurveto
          194 6 callsubr
          -246 -18 callgsubr
          -12 hlineto
          -8 callsubr
          332 -45 callsubr
          -134 277 callgsubr
          -103 vlineto
          -3 callgsubr
          39 46 10 42 23 vhcurveto
          4 -25 hlineto
          -17 13 -12 15 vhcurveto
          23 193 callsubr
          248 6 callgsubr
          -192 hlineto
          -120 -129 -87 -168 hvcurveto
          -151 vlineto
          -168 129 -87 120 vhcurveto
          endchar
        </CharString>
        <CharString name="atilde">
          3 -49 callsubr
          -36 655 rmoveto
          198 callgsubr
          -22 callsubr
          endchar
        </CharString>
        <CharString name="b">
          1 80 9 rmoveto
          -98 callgsubr
          206 193 callsubr
          248 250 callsubr
          226 hlineto
          -93 callgsubr
          39 -666 217 callgsubr
          352 vlineto
          69 47 35 65 vhcurveto
          72 6 callsubr
          -246 -18 callgsubr
          endchar
        </CharString>
        <CharString name="backslash">
          -104 288 11 rmoveto
          -8 3 4 -3 6 hhcurveto
          13 hlineto
          6 5 4 8 -3 hvcurveto
          -218 620 rlineto
          8 -3 -3 3 -7 281 callsubr
          -2 -6 -8 3 hvcurveto
          endchar
        </CharString>
        <CharString name="bar">
          -297 115 634 42 callgsubr
          endchar
        </CharString>
        <CharString name="braceleft">
          -204 220 643 rmoveto
          -71 -33 -53 -83 hvcurveto
          -141 vlineto
          -61 -24 -21 -43 -96 callsubr
          vhcurveto
          -12 vlineto
          -93 callsubr
          43 24 -21 -61 vhcurveto
          -140 vlineto
          -83 33 -53 71 vhcurveto
          4 -104 callsubr
          -4 hlineto
          -57 -17 38 callsubr
          140 vlineto
          49 -19 35 -33 11 vhcurveto
          33 11 19 34 50 vvcurveto
          141 vlineto
          68 17 41 57 vhcurveto
          4 163 callsubr
        </CharString>
        <CharString name="braceright">
          -204 157 507 rmoveto
          83 -33 53 -71 289 callgsubr
          57 17 -41 -68 hvcurveto
          -141 vlineto
          -50 19 -34 33 -11 vhcurveto
          -33 -11 -19 -35 -49 vvcurveto
          -140 vlineto
          -68 -17 -41 -57 289 callgsubr
          71 33 53 83 hvcurveto
          140 vlineto
          61 24 21 43 -90 callsubr
          vhcurveto
          12 vlineto
          -86 callgsubr
          -43 -24 21 61 vhcurveto
          endchar
        </CharString>
        <CharString name="bracketleft">
          -220 198 -102 -16 callgsubr
          -99 hlineto
          -8 callsubr
          673 -95 callgsubr
          99 -104 callsubr
          -130 -85 callsubr
          -727 vlineto
          -98 callgsubr
          endchar
        </CharString>
        <CharString name="bracketright">
          -220 60 -94 rmoveto
          -99 callgsubr
          130 hlineto
          -83 callgsubr
          727 vlineto
          7 -3 2 -5 145 callsubr
          99 -100 callsubr
          -673 -64 callsubr
          -99 294 callsubr
        </CharString>
        <CharString name="breve">
          -166 70 694 17 callsubr
        </CharString>
        <CharString name="brokenbar">
          -304 113 258 rmoveto
          273 callsubr
          -249 311 callgsubr
          625 vmoveto
          273 callsubr
          -249 311 callgsubr
          endchar
        </CharString>
        <CharString name="bullet">
          -230 167 388 rmoveto
          -56 callsubr
          -51 -85 callsubr
          -139 vlineto
          -98 callgsubr
          51 hlineto
          -83 callgsubr
          endchar
        </CharString>
        <CharString name="c">
          75 callgsubr
          endchar
        </CharString>
        <CharString name="cacute">
          75 callgsubr
          -59 695 -67 callsubr
        </CharString>
        <CharString name="caron">
          -176 155 574 -63 callgsubr
          endchar
        </CharString>
        <CharString name="ccaron">
          75 callgsubr
          -126 566 -63 callgsubr
          endchar
        </CharString>
        <CharString name="ccedilla">
          -107 346 482 rmoveto
          175 callsubr
          36 hlineto
          -40 -45 rlineto
          186 callsubr
          46 50 rlineto
          72 -104 callsubr
          -142 45 callsubr
          endchar
        </CharString>
        <CharString name="cedilla">
          -243 77 -45 rmoveto
          186 callsubr
          65 70 rlineto
          -35 hlineto
          endchar
        </CharString>
        <CharString name="cent">
          -87 267 -89 185 callsubr
          80 91 vlineto
          -104 callgsubr
          -162 45 callsubr
          162 -104 callsubr
          -91 95 hlineto
          -93 callgsubr
          -95 -41 vlineto
          -24 callgsubr
          41 -80 318 callsubr
        </CharString>
        <CharString name="circumflex">
          -176 184 694 -43 callgsubr
        </CharString>
        <CharString name="colon">
          -310 112 128 41 callsubr
          492 vmoveto
          -19 callgsubr
          -119 vlineto
          73 callsubr
          endchar
        </CharString>
        <CharString name="comma">
          -310 112 128 -23 callsubr
          endchar
        </CharString>
        <CharString name="copyright">
          231 209 643 rmoveto
          -5 callsubr
          -371 -32 callgsubr
          310 hlineto
          48 callsubr
          -310 -615 rmoveto
          88 callsubr
          310 6 callsubr
          -369 -18 callgsubr
          -24 374 rmoveto
          83 -43 33 -81 vhcurveto
          -21 hlineto
          -81 -43 -33 -83 hvcurveto
          -168 vlineto
          -83 43 -33 81 vhcurveto
          21 hlineto
          81 43 33 83 hvcurveto
          24 -94 callsubr
          -23 vlineto
          -68 -27 -21 -67 vhcurveto
          -21 hlineto
          -67 -27 21 68 hvcurveto
          166 vlineto
          68 27 21 67 vhcurveto
          21 hlineto
          67 27 -21 -68 hvcurveto
          -17 vlineto
          -87 callsubr
          endchar
        </CharString>
        <CharString name="d">
          1 108 callsubr
          endchar
        </CharString>
        <CharString name="dagger">
          -65 217 92 callgsubr
          0 6 275 43 vvcurveto
          36 -3 55 -1 20 170 callsubr
          145 3 rlineto
          -1 -23 -2 -56 -31 vvcurveto
          -44 6 -275 0 vhcurveto
          -98 callgsubr
          endchar
        </CharString>
        <CharString name="daggerdbl">
          -65 204 438 rmoveto
          -1 -24 -2 -62 -32 vvcurveto
          -33 2 -60 1 -23 vhcurveto
          -145 4 rlineto
          241 callgsubr
          146 4 -4 -173 rlineto
          -87 callsubr
          -4 173 146 -4 rlineto
          136 callgsubr
          -146 -4 rlineto
          1 22 3 57 36 vvcurveto
          36 -3 62 -1 21 170 callsubr
          endchar
        </CharString>
        <CharString name="danda">
          -217 236 callgsubr
          endchar
        </CharString>
        <CharString name="dcaron">
          11 108 callsubr
          311 694 -23 callsubr
          endchar
        </CharString>
        <CharString name="dcroat">
          35 388 132 229 callsubr
          166 -48 callgsubr
          72 hlineto
          326 callgsubr
          -110 -308 208 callsubr
          545 -95 callgsubr
          66 -104 callsubr
          -66 hlineto
          -8 callsubr
          96 -94 callsubr
          -96 -64 callsubr
          -169 -91 callsubr
          169 10 callgsubr
          -4 vlineto
          264 callgsubr
          -168 -32 callgsubr
          endchar
        </CharString>
        <CharString name="degree">
          -221 144 536 rmoveto
          -12 hlineto
          -28 -6 8 27 hvcurveto
          72 vlineto
          27 6 8 28 vhcurveto
          12 hlineto
          28 6 -8 -27 hvcurveto
          -72 vlineto
          -27 -6 -8 -28 vhcurveto
          12 -25 rmoveto
          30 20 18 31 hvcurveto
          97 vlineto
          30 -20 17 -30 vhcurveto
          -37 hlineto
          -31 -18 -17 -30 hvcurveto
          -97 vlineto
          -31 18 -18 31 vhcurveto
          endchar
        </CharString>
        <CharString name="dieresis">
          -171 226 583 rmoveto
          -59 callsubr
        </CharString>
        <CharString name="divide">
          25 246 434 231 callgsubr
          64 -94 callsubr
          192 -191 -16 callgsubr
          -354 -91 callsubr
          162 -163 231 callgsubr
          64 85 callsubr
        </CharString>
        <CharString name="dollar">
          1 270 -98 185 callsubr
          89 11 vlineto
          -9 callsubr
          74 vlineto
          98 -56 31 -77 vhcurveto
          -81 hlineto
          -70 -34 24 77 hvcurveto
          68 -48 callgsubr
          80 6 callsubr
          -29 vlineto
          -87 callsubr
          30 6 callgsubr
          -11 89 hlineto
          -93 callgsubr
          -89 -39 vlineto
          -5 callsubr
          -69 vlineto
          -100 58 -28 82 vhcurveto
          72 hlineto
          68 38 -25 -79 hvcurveto
          -71 -18 callgsubr
          -80 -55 callsubr
          33 -94 callsubr
          -34 -32 callgsubr
          39 -89 318 callsubr
        </CharString>
        <CharString name="dotaccent">
          -327 70 589 rmoveto
          57 callsubr
        </CharString>
        <CharString name="dotlessi">
          -297 64 callgsubr
          endchar
        </CharString>
        <CharString name="dottedcircle">
          163 139 517 rmoveto
          -26 18 -19 26 26 18 19 26 25 -18 19 -26 -26 -18 -19 -25 vhcurveto
          -82 -110 rmoveto
          -25 20 -19 26 24 20 19 25 25 -20 19 -24 -26 -20 -19 -25 vhcurveto
          -13 -126 rmoveto
          -25 19 -18 25 26 18 18 327 callsubr
          52 -116 rmoveto
          -26 18 -18 26 25 19 18 26 25 -19 19 -25 -26 -18 -19 -25 vhcurveto
          101 -75 rmoveto
          -26 19 -20 26 25 19 20 26 24 -19 20 -25 -26 -19 -20 -24 vhcurveto
          127 -16 rmoveto
          -26 18 -18 26 26 19 18 26 26 -19 18 -26 -26 -18 -18 -26 vhcurveto
          121 53 rmoveto
          -26 19 -18 25 25 20 18 26 25 -20 19 -25 -25 -19 -19 -25 vhcurveto
          73 98 rmoveto
          -25 19 -19 26 24 19 19 25 26 -19 19 -24 -26 -19 -19 -26 vhcurveto
          10 134 rmoveto
          -26 18 -18 26 25 19 18 26 26 -19 18 -25 -26 -18 -18 -26 vhcurveto
          -50 118 rmoveto
          -25 19 -19 25 26 18 19 327 callsubr
          -95 68 rmoveto
          -24 19 -20 26 25 18 20 24 26 -18 19 -25 -26 -19 -19 -26 vhcurveto
          -126 15 rmoveto
          -26 18 -18 26 26 18 18 26 26 -18 18 -26 -26 -18 -18 -26 vhcurveto
          endchar
        </CharString>
        <CharString name="doubledanda">
          13 236 callgsubr
          230 -605 231 callgsubr
          605 85 callsubr
        </CharString>
        <CharString name="dvA">
          98 481 623 rmoveto
          -6 callsubr
          92 hlineto
          -97 callsubr
          9 vlineto
          -86 callgsubr
          vhcurveto
          endchar
        </CharString>
        <CharString name="dvAA">
          326 479 623 rmoveto
          -6 callsubr
          182 -100 callsubr
          -581 vlineto
          -7 3 -2 5 vhcurveto
          14 hlineto
          -107 callgsubr
          endchar
        </CharString>
        <CharString name="dvAI">
          30 468 228 callsubr
          40 -58 41 -54 21 -26 rlinecurve
          -429 -14 callsubr
          92 -100 callsubr
          -422 -32 callgsubr
          184 hlineto
          295 callgsubr
          -67 -37 41 68 hvcurveto
          421 284 callsubr
          -3 -5 hvcurveto
          -167 vlineto
          -80 -43 -22 -51 298 callsubr
          45 100 callgsubr
          167 -95 callgsubr
          67 -106 callgsubr
          endchar
        </CharString>
        <CharString name="dvAU">
          328 731 623 rmoveto
          221 callgsubr
          -63 vlineto
          -83 10 -61 0 vhcurveto
          -3 -1 -139 208 rlineto
          91 callsubr
          -14 217 callsubr
          -2 1 -2 1 -2 hvcurveto
          63 -93 rlineto
          60 -88 43 -46 0 vvcurveto
          -4 -214 vlineto
          -6 callsubr
          182 -100 callsubr
          -581 vlineto
          -7 3 -2 5 vhcurveto
          14 hlineto
          -107 callgsubr
          endchar
        </CharString>
        <CharString name="dvAbbreviationsign">
          -120 336 279 rmoveto
          51 6 callgsubr
          -30 277 callgsubr
          -51 -32 callgsubr
          30 193 callsubr
          -268 1 rmoveto
          49 -48 callgsubr
          30 6 callsubr
          -49 -18 callgsubr
          -30 319 callsubr
        </CharString>
        <CharString name="dvAcandra">
          98 481 623 rmoveto
          -6 callsubr
          92 hlineto
          -97 callsubr
          9 vlineto
          -86 callgsubr
          vhcurveto
          12 197 rmoveto
          237 callsubr
          -68 -23 -25 -67 330 callsubr
          -23 25 68 104 callgsubr
          -83 39 -38 81 vhcurveto
          61 hlineto
          81 39 38 83 232 callsubr
          endchar
        </CharString>
        <CharString name="dvAnusvara">
          -497 -100 741 rmoveto
          -27 callgsubr
          endchar
        </CharString>
        <CharString name="dvAnusvara.amI">
          -497 80 741 rmoveto
          -27 callgsubr
          endchar
        </CharString>
        <CharString name="dvAvagraha">
          27 431 202 rmoveto
          61 -22 27 -130 70 vhcurveto
          -113 61 -5 45 38 vvcurveto
          64 7 30 81 vhcurveto
          129 -106 callgsubr
          -130 hlineto
          -102 -15 -40 -80 -59 12 -46 122 -65 hvcurveto
          98 -51 38 -27 -53 vvcurveto
          -72 vlineto
          -58 -15 -44 -82 vhcurveto
          -37 hlineto
          -58 -36 33 54 -51 hvcurveto
          4 -4 -4 4 -4 hhcurveto
          -3 -2 -1 -3 -3 hvcurveto
          -3 -3 rlineto
          -2 -2 -1 -2 -3 vvcurveto
          -4 4 -6 4 -4 vhcurveto
          -36 34 54 -59 73 hhcurveto
          40 hlineto
          94 32 48 82 hvcurveto
          endchar
        </CharString>
        <CharString name="dvB">
          -237 379 615 rmoveto
          -102 callgsubr
          -371 -14 callsubr
          371 hlineto
          -97 callsubr
          -175 247 callgsubr
          112 142 320 callsubr
          -27 vlineto
          -12 -1 -10 -2 -10 vhcurveto
          -230 243 202 callgsubr
          -81 -53 -50 -83 hvcurveto
          115 callgsubr
          52 86 callgsubr
          28 248 callsubr
        </CharString>
        <CharString name="dvBA">
          -15 255 callgsubr
          -33 -18 -45 hhcurveto
          -249 43 callsubr
          344 -100 callsubr
          -369 vlineto
          -7 0 -7 -1 -6 vhcurveto
          -224 236 202 callgsubr
          -81 -53 -50 -83 hvcurveto
          115 callgsubr
          44 -53 callsubr
          -131 hlineto
          -7 3 -2 5 vhcurveto
          14 hlineto
          -107 callgsubr
          endchar
        </CharString>
        <CharString name="dvBH">
          -240 352 312 rmoveto
          -97 callsubr
          11 -103 callgsubr
          -229 51 callsubr
          228 286 rmoveto
          7 2 3 5 hvcurveto
          9 vlineto
          5 -2 3 -7 154 callgsubr
          endchar
        </CharString>
        <CharString name="dvBHA">
          -11 347 312 287 callgsubr
          -295 vlineto
          -7 3 -2 5 vhcurveto
          14 hlineto
          -107 callgsubr
          -229 -14 callsubr
          89 127 callgsubr
          -224 51 callsubr
          endchar
        </CharString>
        <CharString name="dvBH_LA">
          449 290 callgsubr
          549 160 callsubr
          -4 hlineto
          53 -17 -48 17 -52 hhcurveto
          -72 -50 -32 -72 -10 hvcurveto
          -219 51 callsubr
          216 -2 hlineto
          -136 vlineto
          -89 callgsubr
          38 25 66 67 37 -28 -78 vhcurveto
          -300 vlineto
          -7 3 -2 5 vhcurveto
          14 hlineto
          -107 callgsubr
          endchar
        </CharString>
        <CharString name="dvBH_NA">
          251 256 -78 callsubr
          353 hlineto
          145 callgsubr
          -33 -23 -11 -18 -15 hvcurveto
          -226 51 callsubr
          211 hlineto
          -3 -10 -2 -11 -12 vvcurveto
          -20 6 -27 158 callgsubr
          188 -100 callsubr
          -324 vlineto
          -7 3 -2 5 vhcurveto
          14 hlineto
          -107 callgsubr
          endchar
        </CharString>
        <CharString name="dvBH_R">
          -246 123 339 rmoveto
          -27 callsubr
          226 -10 hlineto
          -244 -287 -28 callsubr
          12 hlineto
          7 3 3 6 5 hvcurveto
          224 265 12 14 4 9 1 21 rlinecurve
          2 vlineto
          11 -103 callgsubr
          -111 182 callsubr
          119 -106 callgsubr
          endchar
        </CharString>
        <CharString name="dvBH_RA">
          -11 258 623 rmoveto
          -7 -2 -3 -5 hvcurveto
          -9 vlineto
          -5 2 -3 7 vhcurveto
          89 hlineto
          7 2 -3 -5 hvcurveto
          -243 vlineto
          -5 -2 -3 -7 vhcurveto
          -224 51 callsubr
          223 hlineto
          5 2 -1 -3 1 hvcurveto
          -249 -293 -28 callsubr
          12 hlineto
          7 3 3 6 5 hvcurveto
          219 259 rlineto
          -259 vlineto
          -7 3 -2 5 vhcurveto
          14 hlineto
          -107 callgsubr
          endchar
        </CharString>
        <CharString name="dvBH_R_YA">
          320 687 251 -90 callgsubr
          -430 -62 callgsubr
          131 -58 callgsubr
          -47 -210 vlineto
          -27 callsubr
          209 -29 hlineto
          -227 -268 -28 callsubr
          12 hlineto
          7 3 3 6 5 hvcurveto
          197 232 rlineto
          -80 6 56 -49 81 hhcurveto
          231 callsubr
          -157 hlineto
          -7 3 -2 5 vhcurveto
          14 hlineto
          -107 callgsubr
          endchar
        </CharString>
        <CharString name="dvBH_VA">
          247 290 callgsubr
          348 -10 callgsubr
          -101 callgsubr
          -81 -53 -50 -83 hvcurveto
          -14 -215 vlineto
          -27 callsubr
          214 -82 hlineto
          1 callgsubr
          -12 callgsubr
          13 hlineto
          -107 callgsubr
          endchar
        </CharString>
        <CharString name="dvBH_YA">
          321 688 251 -90 callgsubr
          -430 -62 callgsubr
          131 -58 callgsubr
          -47 -211 vlineto
          -27 callsubr
          210 -57 213 callsubr
          -157 hlineto
          -7 3 -2 5 vhcurveto
          14 hlineto
          -107 callgsubr
          endchar
        </CharString>
        <CharString name="dvB_BA">
          275 494 48 callgsubr
          -33 -18 -45 hhcurveto
          -334 hmoveto
          -9 callgsubr
          634 -100 callsubr
          -369 vlineto
          -7 0 -7 -1 -6 vhcurveto
          -224 236 202 callgsubr
          -81 -53 -50 -83 hvcurveto
          -133 vlineto
          -12 -1 -10 -2 -10 vhcurveto
          -230 243 202 callgsubr
          -81 -53 -50 -83 hvcurveto
          115 callgsubr
          52 hlineto
          55 43 23 42 21 hvcurveto
          -42 21 43 -23 55 hhcurveto
          44 -53 callsubr
          -131 hlineto
          -7 3 -2 5 vhcurveto
          14 hlineto
          -107 callgsubr
          endchar
        </CharString>
        <CharString name="dvB_BHA">
          257 255 callgsubr
          -31 -18 -46 hhcurveto
          277 503 200 callsubr
          -275 -14 callsubr
          275 150 callgsubr
          -293 vlineto
          -9 -1 -9 -1 -8 vhcurveto
          -224 237 202 callgsubr
          -81 -53 -50 -83 hvcurveto
          115 callgsubr
          45 hlineto
          80 53 50 82 1 hvcurveto
          1 vlineto
          79 -95 callgsubr
          232 -303 hlineto
          -7 3 -2 5 vhcurveto
          14 hlineto
          -107 callgsubr
          endchar
        </CharString>
        <CharString name="dvB_BH_RA">
          257 255 callgsubr
          -31 -18 -46 hhcurveto
          277 503 200 callsubr
          -275 -14 callsubr
          275 150 callgsubr
          -293 vlineto
          -9 -1 -9 -1 -8 vhcurveto
          -224 237 202 callgsubr
          -81 -53 -50 -83 hvcurveto
          115 callgsubr
          45 hlineto
          80 53 50 82 1 hvcurveto
          1 vlineto
          79 -95 callgsubr
          232 -3 hlineto
          -250 -294 -28 callsubr
          12 hlineto
          7 3 3 6 5 hvcurveto
          219 259 rlineto
          -259 vlineto
          -7 3 -2 5 vhcurveto
          14 hlineto
          -107 callgsubr
          endchar
        </CharString>
        <CharString name="dvB_DA">
          276 204 120 rmoveto
          -9 callgsubr
          639 84 callsubr
          -81 -53 -53 -83 hvcurveto
          -101 vlineto
          -12 -1 -10 -2 -10 vhcurveto
          -230 243 202 callgsubr
          -81 -53 -50 -83 hvcurveto
          115 callgsubr
          52 hlineto
          56 43 24 43 21 hvcurveto
          -42 21 42 -24 55 hhcurveto
          47 callgsubr
        </CharString>
        <CharString name="dvB_DHA">
          347 282 callsubr
          235 -248 rlineto
          -29 -16 -31 -16 -43 hhcurveto
          357 43 callsubr
          91 hlineto
          324 callsubr
          126 callsubr
          48 35 callgsubr
          24 hlineto
          -97 callsubr
          9 vlineto
          -86 callgsubr
          vhcurveto
          -504 -14 callsubr
          400 153 callsubr
          -43 -14 -20 -32 -2 -55 rrcurveto
          -2 vlineto
          -27 vlineto
          -12 -1 -10 -2 -10 vhcurveto
          -230 243 202 callgsubr
          -81 -53 -50 -83 hvcurveto
          115 callgsubr
          52 hlineto
          50 40 19 35 22 hvcurveto
          -49 18 44 -25 62 hhcurveto
          117 hlineto
          46 38 16 34 16 hvcurveto
          4 -113 hlineto
          -7 3 -2 5 vhcurveto
          14 hlineto
          -107 callgsubr
          endchar
        </CharString>
        <CharString name="dvB_DH_VA">
          590 282 callsubr
          232 -245 rlineto
          -34 -28 -18 -14 -49 hhcurveto
          410 43 callsubr
          291 -10 callgsubr
          -101 callgsubr
          -81 -53 -50 -83 hvcurveto
          -123 vlineto
          -31 8 -27 13 -21 vhcurveto
          -25 -25 -22 -15 -44 hhcurveto
          -117 hlineto
          22 callsubr
          27 278 callgsubr
          -521 -14 callsubr
          402 35 callsubr
          -29 214 callgsubr
          -44 vlineto
          -7 0 -7 1 -7 vhcurveto
          0 vlineto
          -236 249 202 callgsubr
          -81 -53 -50 -83 hvcurveto
          115 callgsubr
          44 hlineto
          66 31 33 33 25 hvcurveto
          -50 17 45 -25 62 hhcurveto
          117 hlineto
          56 30 25 23 22 hvcurveto
          -22 23 33 -12 40 hhcurveto
          -12 callgsubr
          13 hlineto
          -107 callgsubr
          endchar
        </CharString>
        <CharString name="dvB_JA">
          380 100 332 rmoveto
          24 4 20 9 16 vhcurveto
          235 -288 rlineto
          -144 -50 callsubr
          -101 413 -91 callgsubr
          739 222 callgsubr
          -79 3 callsubr
          -98 hlineto
          -254 311 rlineto
          15 18 24 8 31 -40 callgsubr
          -124 vlineto
          1 callgsubr
          278 100 callgsubr
          79 vlineto
          46 -13 35 -30 17 vhcurveto
          4 174 4 callsubr
          -370 vlineto
          -7 3 -2 5 vhcurveto
          14 hlineto
          -107 callgsubr
          endchar
        </CharString>
        <CharString name="dvB_JHA">
          452 819 284 80 callsubr
          -326 hlineto
          -67 -27 19 58 hvcurveto
          35 90 callsubr
          172 -100 callsubr
          -615 -470 rmoveto
          -9 callgsubr
          591 -100 callsubr
          -89 -64 callsubr
          -106 hlineto
          -81 -43 -32 -73 hvcurveto
          -162 vlineto
          -12 -1 -10 -2 -10 vhcurveto
          -230 243 202 callgsubr
          -81 -53 -50 -83 hvcurveto
          115 callgsubr
          52 hlineto
          81 50 50 83 hvcurveto
          56 vlineto
          -21 21 32 -12 44 hhcurveto
          61 hlineto
          60 24 -22 -55 hvcurveto
          -70 vlineto
          -58 -27 -21 -67 vhcurveto
          -38 hlineto
          -63 -31 18 61 -72 callgsubr
          hvcurveto
          -12 -85 callsubr
          -191 vlineto
          -98 callgsubr
          12 hlineto
          -83 callgsubr
          117 4 vlineto
          -28 18 34 -5 38 hhcurveto
          38 hlineto
          81 43 33 73 hvcurveto
          72 vlineto
          34 -9 28 -21 14 vhcurveto
          181 -100 callsubr
          -231 vlineto
          -7 3 -2 5 vhcurveto
          14 hlineto
          -107 callgsubr
          endchar
        </CharString>
        <CharString name="dvB_J_YA">
          733 1100 251 -90 callgsubr
          -1000 -258 rmoveto
          24 4 20 9 16 vhcurveto
          235 -288 rlineto
          -144 -50 callsubr
          -101 413 -91 callgsubr
          802 230 callsubr
          -28 hlineto
          27 -7 -18 14 -38 hhcurveto
          -294 hlineto
          -40 callsubr
          -99 vlineto
          -80 -43 -22 -51 vhcurveto
          -98 hlineto
          -254 311 rlineto
          15 18 24 8 31 -40 callgsubr
          -124 vlineto
          1 callgsubr
          278 100 callgsubr
          99 vlineto
          46 -13 35 -30 17 vhcurveto
          4 146 vlineto
          34 2 -13 -32 hvcurveto
          -107 vlineto
          33 callsubr
          231 callsubr
          -157 hlineto
          -7 3 -2 5 vhcurveto
          14 hlineto
          -107 callgsubr
          endchar
        </CharString>
        <CharString name="dvB_JxA">
          380 436 15 rmoveto
          -73 callsubr
          107 callsubr
          -356 317 rmoveto
          24 4 20 9 16 vhcurveto
          235 -288 rlineto
          -144 -50 callsubr
          -101 413 -91 callgsubr
          739 222 callgsubr
          -79 3 callsubr
          -98 hlineto
          -254 311 rlineto
          15 18 24 8 31 -40 callgsubr
          -124 vlineto
          1 callgsubr
          278 100 callgsubr
          79 vlineto
          46 -13 35 -30 17 vhcurveto
          4 174 4 callsubr
          -370 vlineto
          -7 3 -2 5 vhcurveto
          14 hlineto
          -107 callgsubr
          endchar
        </CharString>
        <CharString name="dvB_LA">
          469 204 120 rmoveto
          -9 callgsubr
          828 160 callsubr
          -4 hlineto
          2 callsubr
          -84 vlineto
          -12 -1 -10 -2 -10 vhcurveto
          -230 243 202 callgsubr
          -81 -53 -50 -83 hvcurveto
          115 callgsubr
          52 hlineto
          49 37 18 33 21 hvcurveto
          -73 13 49 -29 69 162 callsubr
          -300 vlineto
          -7 3 -2 5 vhcurveto
          14 hlineto
          -107 callgsubr
          endchar
        </CharString>
        <CharString name="dvB_L_YA">
          -237 1190 44 callgsubr
          80 24 vlineto
          75 50 35 91 hvcurveto
          42 27 callgsubr
          -986 -470 rmoveto
          -9 callgsubr
          892 203 callgsubr
          -28 hlineto
          82 -6 -64 27 -61 164 callsubr
          -4 hlineto
          2 callsubr
          -114 vlineto
          -12 -1 -10 -2 -10 vhcurveto
          -230 243 202 callgsubr
          -81 -53 -50 -83 hvcurveto
          115 callgsubr
          52 hlineto
          50 40 19 35 23 hvcurveto
          -52 18 45 -23 62 hhcurveto
          -96 callgsubr
          38 25 66 66 38 -25 -80 vhcurveto
          -85 vlineto
          33 callsubr
          231 callsubr
          -157 hlineto
          -7 3 -2 5 vhcurveto
          14 hlineto
          -107 callgsubr
          endchar
        </CharString>
        <CharString name="dvB_NA">
          301 341 171 rmoveto
          -33 -16 -31 -18 -46 hhcurveto
          -44 -50 callsubr
          132 vlineto
          21 3 18 7 15 vhcurveto
          152 52 -16 callgsubr
          -58 hlineto
          -81 -53 -50 -83 hvcurveto
          115 callgsubr
          44 hlineto
          64 38 31 53 24 hvcurveto
          -247 260 rlineto
          18 17 26 10 34 hhcurveto
          -205 159 -91 callgsubr
          660 hlineto
          7 2 -3 -5 hvcurveto
          -214 vlineto
          -5 -2 -3 -7 vhcurveto
          205 callgsubr
          188 -100 callsubr
          -324 vlineto
          -7 3 -2 5 vhcurveto
          14 hlineto
          -107 callgsubr
          endchar
        </CharString>
        <CharString name="dvB_R">
          -240 362 216 rmoveto
          -3 -8 -2 -6 -4 -6 -226 240 rcurveline
          18 17 26 10 34 -40 callgsubr
          115 callgsubr
          64 -4 hlineto
          0 -25 -17 -40 -36 vhcurveto
          -67 -58 -28 callsubr
          16 140 callsubr
          109 95 59 51 25 25 25 67 rlinecurve
          1 3 1 4 3 vvcurveto
          7 -4 2 -3 1 vhcurveto
          -7 2 -4 1 -2 0 -3 -2 rlinecurve
          -3 -2 0 -5 -3 -7 rrcurveto
          -262 142 rmoveto
          21 3 18 7 15 vhcurveto
          231 -241 rlineto
          -32 -15 -33 -19 -45 hhcurveto
          -44 -50 callsubr
          -101 397 -91 callgsubr
          375 -106 callgsubr
          endchar
        </CharString>
        <CharString name="dvB_RA">
          -15 266 88 rmoveto
          0 -23 -17 -40 -36 vhcurveto
          -67 -58 -28 callsubr
          16 140 callsubr
          107 95 315 callgsubr
          -125 hlineto
          -7 3 -2 5 vhcurveto
          14 hlineto
          -107 callgsubr
          -484 -14 callsubr
          344 -100 callsubr
          -369 vlineto
          -7 -1 -7 -1 -7 vhcurveto
          -223 236 rlineto
          18 17 26 10 34 -40 callgsubr
          115 callgsubr
          62 hlineto
          -166 266 rmoveto
          289 callsubr
          -44 -50 callsubr
          endchar
        </CharString>
        <CharString name="dvB_SA">
          396 763 329 -21 callgsubr
          -559 -470 rmoveto
          -9 callgsubr
          508 270 callsubr
          -87 vlineto
          -12 -1 -10 -2 -10 vhcurveto
          -230 243 202 callgsubr
          -81 -53 -50 -83 hvcurveto
          115 callgsubr
          52 hlineto
          81 51 50 83 hvcurveto
          30 vlineto
          140 -246 -70 callsubr
          -158 275 rlineto
          313 callgsubr
          -276 vlineto
          -7 3 -2 5 vhcurveto
          14 hlineto
          -107 callgsubr
          endchar
        </CharString>
        <CharString name="dvB_SHA">
          428 314 615 rmoveto
          -102 callgsubr
          -306 -14 callsubr
          306 hlineto
          -97 callsubr
          -110 247 callgsubr
          138 331 83 callsubr
          -150 hlineto
          -101 callsubr
          -76 vlineto
          -12 -1 -10 -2 -10 vhcurveto
          -230 243 202 callgsubr
          -81 -53 -50 -83 hvcurveto
          115 callgsubr
          52 hlineto
          81 50 50 83 hvcurveto
          28 vlineto
          160 -244 rlineto
          -6 4 3 -3 7 hhcurveto
          13 hlineto
          5 3 2 4 2 -1 2 -2 3 hvcurveto
          -177 269 rlineto
          116 104 callsubr
          417 120 rmoveto
          218 callgsubr
          -596 vlineto
          -7 3 -2 5 vhcurveto
          14 hlineto
          -107 callgsubr
          endchar
        </CharString>
        <CharString name="dvB_TA">
          283 204 120 rmoveto
          -9 callgsubr
          642 -100 callsubr
          -173 -64 callsubr
          -156 225 callgsubr
          -53 vlineto
          -12 -1 -10 -2 -10 vhcurveto
          -230 243 202 callgsubr
          -81 -53 -50 -83 hvcurveto
          115 callgsubr
          52 hlineto
          44 37 15 27 23 hvcurveto
          -4 vlineto
          -81 callgsubr
          149 vlineto
          61 callgsubr
          -364 vlineto
          -7 3 -2 5 vhcurveto
          14 hlineto
          -107 callgsubr
          endchar
        </CharString>
        <CharString name="dvB_VA">
          269 204 120 rmoveto
          -9 callgsubr
          629 -10 callgsubr
          -101 callgsubr
          -81 -53 -50 -83 hvcurveto
          -127 vlineto
          -12 -1 -10 -2 -10 vhcurveto
          -230 243 202 callgsubr
          -81 -53 -50 -83 hvcurveto
          115 callgsubr
          52 hlineto
          59 42 27 47 18 hvcurveto
          -43 21 43 -26 55 hhcurveto
          -12 callgsubr
          13 hlineto
          -107 callgsubr
          endchar
        </CharString>
        <CharString name="dvB_YA">
          347 714 251 -90 callgsubr
          -510 -470 rmoveto
          -9 callgsubr
          416 -18 callsubr
          -1 vlineto
          -1 vlineto
          -27 vlineto
          -12 -1 -10 -2 -10 vhcurveto
          -230 243 202 callgsubr
          -81 -53 -50 -83 hvcurveto
          115 callgsubr
          52 hlineto
          62 46 30 51 18 hvcurveto
          -39 24 43 -22 55 hhcurveto
          231 callsubr
          -157 hlineto
          -7 3 -2 5 vhcurveto
          14 hlineto
          -107 callgsubr
          endchar
        </CharString>
        <CharString name="dvC">
          -173 429 78 callsubr
          -430 -14 callsubr
          323 -486 211 callsubr
          -79 -11 callgsubr
          -4 hlineto
          261 callgsubr
          -50 81 vhcurveto
          endchar
        </CharString>
        <CharString name="dvCA">
          59 156 397 rmoveto
          261 callgsubr
          -50 81 vhcurveto
          79 -53 callsubr
          -151 hlineto
          -7 3 -2 5 vhcurveto
          14 hlineto
          -107 callgsubr
          -558 -14 callsubr
          418 -100 callsubr
          -349 241 callsubr
          -79 -11 callgsubr
          hlineto
          endchar
        </CharString>
        <CharString name="dvCH">
          91 -76 callsubr
          123 118 callsubr
          167 193 callsubr
          185 vlineto
          83 -43 40 -81 vhcurveto
          -39 -14 callsubr
          39 253 callsubr
          -183 -18 callgsubr
          -167 hlineto
          -67 -27 31 68 hvcurveto
          49 vlineto
          63 29 33 65 52 callgsubr
          -62 -32 33 63 hvcurveto
          59 99 callsubr
          387 -106 callgsubr
          endchar
        </CharString>
        <CharString name="dvCHA">
          91 345 440 -35 callsubr
          -385 214 callsubr
          123 -4 hlineto
          -29 -16 -10 -31 -47 vvcurveto
          -61 vlineto
          -55 18 -34 47 -17 vhcurveto
          -4 vlineto
          -45 -15 -20 -34 -59 96 callsubr
        </CharString>
        <CharString name="dvCH_RA">
          91 345 440 -35 callsubr
          -385 214 callsubr
          123 118 callsubr
          55 52 callsubr
          43 25 callgsubr
        </CharString>
        <CharString name="dvCH_R_YA">
          571 938 251 72 callsubr
          40 -89 hvcurveto
          -324 -14 callsubr
          39 253 callsubr
          -183 -18 callgsubr
          -167 hlineto
          -67 -27 31 68 hvcurveto
          49 vlineto
          63 29 33 65 52 callgsubr
          -62 -32 33 63 hvcurveto
          59 99 callsubr
          727 -100 callsubr
          -939 194 callgsubr
          83 hlineto
          -114 -149 -42 callsubr
          -114 149 rlineto
          39 193 callsubr
          185 vlineto
          45 -13 33 -25 20 vhcurveto
          199 77 callgsubr
          -157 hlineto
          -7 3 -2 5 vhcurveto
          14 hlineto
          -107 callgsubr
          endchar
        </CharString>
        <CharString name="dvCH_YA">
          573 940 240 72 callsubr
          43 -89 hvcurveto
          -326 -91 callsubr
          39 hlineto
          67 27 -28 -68 hvcurveto
          -175 -18 callgsubr
          -167 hlineto
          -67 -27 31 68 hvcurveto
          49 vlineto
          63 29 33 65 52 callgsubr
          -62 -32 33 63 hvcurveto
          59 99 callsubr
          729 -100 callsubr
          -941 194 callgsubr
          167 193 callsubr
          177 vlineto
          43 -12 32 -22 20 vhcurveto
          197 77 callgsubr
          -146 hlineto
          -7 3 -2 5 vhcurveto
          14 hlineto
          -107 callgsubr
          endchar
        </CharString>
        <CharString name="dvC_CA">
          359 -76 callsubr
          718 -100 callsubr
          -349 241 callsubr
          -79 -50 callsubr
          49 173 callsubr
          -245 -91 callsubr
          95 291 callsubr
          -22 4 -20 7 -16 vhcurveto
          -4 -4 rlineto
          -27 -27 -21 -16 -46 hhcurveto
          -79 -50 callsubr
          49 vlineto
          66 35 40 64 vhcurveto
          28 -104 callsubr
          -235 79 callgsubr
          -4 hlineto
          261 callgsubr
          -50 81 vhcurveto
          79 hlineto
          58 30 27 24 23 hvcurveto
          -33 23 38 -18 49 hhcurveto
          79 -53 callsubr
          -151 hlineto
          -7 3 -2 5 vhcurveto
          14 hlineto
          -107 callgsubr
          endchar
        </CharString>
        <CharString name="dvC_CHA">
          427 681 440 -35 callsubr
          -721 214 callsubr
          459 119 callgsubr
          -35 vlineto
          -3 -3 rlineto
          -27 -27 -21 -16 -46 hhcurveto
          -79 -11 callgsubr
          -4 hlineto
          261 callgsubr
          -50 81 vhcurveto
          79 hlineto
          48 28 18 20 22 hvcurveto
          -70 6 43 -36 74 hhcurveto
          167 25 callgsubr
        </CharString>
        <CharString name="dvC_CH_VA">
          416 670 480 98 callgsubr
          -96 -18 callgsubr
          -167 hlineto
          -67 -27 31 68 hvcurveto
          10 vlineto
          63 29 33 65 52 callgsubr
          -62 -32 33 63 hvcurveto
          19 99 callsubr
          235 -100 callsubr
          -99 vlineto
          -8 -1 -7 -3 -5 vhcurveto
          6 -16 -20 3 -22 hhcurveto
          -152 -533 rmoveto
          -67 -27 31 68 44 23 33 62 hvcurveto
          151 hlineto
          28 24 6 12 20 hvcurveto
          -85 -18 callgsubr
          -668 676 -91 callgsubr
          448 35 callsubr
          -21 214 callgsubr
          -12 vlineto
          -24 4 -22 7 -17 vhcurveto
          -3 -3 rlineto
          -27 -27 -21 -16 -46 hhcurveto
          -79 -11 callgsubr
          -4 hlineto
          261 callgsubr
          -50 81 vhcurveto
          79 hlineto
          58 30 27 24 23 hvcurveto
          11 -14 15 -11 18 -6 rrcurveto
          -26 -16 -18 -27 -44 vvcurveto
          -83 43 -43 81 vhcurveto
          110 193 callsubr
          112 vlineto
          21 25 11 36 43 vvcurveto
          86 vlineto
          46 -13 33 -26 20 vhcurveto
          5 8 2 11 13 vvcurveto
          102 -95 callgsubr
          104 -106 callgsubr
          endchar
        </CharString>
        <CharString name="dvC_MA">
          324 691 367 rmoveto
          155 callsubr
          222 -74 callsubr
          -692 -62 callgsubr
          412 -100 callsubr
          -324 12 callgsubr
          -73 -11 callgsubr
          -4 hlineto
          261 callgsubr
          -50 81 vhcurveto
          73 86 callgsubr
          59 -74 callsubr
          -315 vlineto
          -7 3 -2 5 vhcurveto
          14 hlineto
          -107 callgsubr
          endchar
        </CharString>
        <CharString name="dvC_NA">
          319 -76 callsubr
          678 -100 callsubr
          -224 vlineto
          306 callsubr
          -17 4 -16 hvcurveto
          -25 -25 -21 -16 -44 hhcurveto
          -71 -50 callsubr
          19 173 callsubr
          -275 79 callgsubr
          -4 hlineto
          199 callgsubr
          -21 vlineto
          1 callgsubr
          71 hlineto
          49 28 19 20 22 hvcurveto
          3 -8 3 -8 3 -7 219 callgsubr
          -314 vlineto
          -7 3 -2 5 vhcurveto
          14 hlineto
          -107 callgsubr
          endchar
        </CharString>
        <CharString name="dvC_R">
          -173 407 78 callsubr
          -408 -14 callsubr
          355 -508 rmoveto
          46 35 22 20 21 21 151 callsubr
          -66 -11 callgsubr
          -4 hlineto
          261 callgsubr
          -49 81 vhcurveto
          96 -4 hlineto
          245 callgsubr
          endchar
        </CharString>
        <CharString name="dvC_RA">
          59 339 109 rmoveto
          245 callgsubr
          140 108 rlineto
          46 36 22 23 0 vvcurveto
          4 -143 hlineto
          -7 3 -2 5 vhcurveto
          14 hlineto
          -107 callgsubr
          -558 -14 callsubr
          418 -100 callsubr
          -349 241 callsubr
          -79 -11 callgsubr
          -4 hlineto
          261 callgsubr
          -49 81 vhcurveto
          96 hlineto
          endchar
        </CharString>
        <CharString name="dvC_YA">
          395 762 251 -90 callgsubr
          -763 -62 callgsubr
          464 -18 callsubr
          -25 5 -23 9 -19 vhcurveto
          -2 -1 -2 -2 -2 -2 rrcurveto
          -27 -27 -21 -16 -46 hhcurveto
          -79 -11 callgsubr
          -4 hlineto
          261 callgsubr
          -50 81 vhcurveto
          79 hlineto
          321 callgsubr
          1 1 rlineto
          -34 25 41 -19 51 hhcurveto
          231 callsubr
          -157 hlineto
          -7 3 -2 5 vhcurveto
          14 hlineto
          -107 callgsubr
          endchar
        </CharString>
        <CharString name="dvCandrabindu">
          -497 -84 684 -6 callgsubr
          49 156 rmoveto
          -27 callgsubr
          endchar
        </CharString>
        <CharString name="dvD">
          -7 238 8 rmoveto
          -42 callgsubr
          -89 128 rlineto
          91 callsubr
          -39 455 65 callgsubr
        </CharString>
        <CharString name="dvDA">
          -7 209 463 65 callgsubr
        </CharString>
        <CharString name="dvDA_mvR">
          -99 334 63 -16 callgsubr
          -125 263 callgsubr
          61 -104 callsubr
          -61 204 callgsubr
          86 -19 callsubr
          109 -95 callgsubr
          79 -106 callgsubr
          -400 -14 callsubr
          274 hlineto
          7 2 -3 -5 hvcurveto
          -91 -64 callsubr
          -64 208 callgsubr
          -30 vlineto
          -73 43 -33 81 vhcurveto
          endchar
        </CharString>
        <CharString name="dvDD">
          -17 247 -52 rmoveto
          -42 callgsubr
          -89 128 rlineto
          91 callsubr
          -258 675 1 callsubr
          endchar
        </CharString>
        <CharString name="dvDDA">
          -17 -1 623 1 callsubr
          endchar
        </CharString>
        <CharString name="dvDDH">
          -12 241 -32 rmoveto
          -42 callgsubr
          -89 128 rlineto
          91 callsubr
          58 73 rmoveto
          -47 callgsubr
          -487 hlineto
          76 callgsubr
          endchar
        </CharString>
        <CharString name="dvDDHA">
          -12 309 41 rmoveto
          -47 callgsubr
          -487 hlineto
          76 callgsubr
          endchar
        </CharString>
        <CharString name="dvDDH_DDHA">
          -10 -76 callsubr
          337 -100 callsubr
          -102 224 callgsubr
          -77 vlineto
          -59 27 -44 45 -20 vhcurveto
          -43 -21 -26 -42 -58 vvcurveto
          -77 302 callsubr
          hlineto
          81 43 43 83 hvcurveto
          5 -13 callsubr
          -4 vlineto
          -68 -27 -31 -67 vhcurveto
          -100 -55 callsubr
          75 -48 callgsubr
          97 hlineto
          81 43 43 83 hvcurveto
          5 -13 callsubr
          -4 vlineto
          -68 -27 -31 -67 vhcurveto
          -100 272 callsubr
          120 -95 callgsubr
          102 -106 callgsubr
          endchar
        </CharString>
        <CharString name="dvDDH_R">
          -12 279 -121 rmoveto
          91 callsubr
          -10 hlineto
          -42 callgsubr
          -369 872 rmoveto
          76 callgsubr
          21 hlineto
          -102 -134 -42 callsubr
          -102 134 rlineto
          10 hlineto
          -47 callgsubr
          endchar
        </CharString>
        <CharString name="dvDDH_RA">
          -12 190 callgsubr
          18 52 callsubr
          13 hlineto
          -47 callgsubr
          endchar
        </CharString>
        <CharString name="dvDDH_YA">
          477 844 200 72 callsubr
          43 -89 hvcurveto
          -200 150 -16 callsubr
          451 -100 callsubr
          -845 33 rmoveto
          76 callgsubr
          100 hlineto
          81 43 43 83 hvcurveto
          15 -13 callsubr
          -14 vlineto
          -68 -27 -31 -67 vhcurveto
          -100 -15 callgsubr
          366 77 callgsubr
          -106 hlineto
          -7 3 -2 5 vhcurveto
          14 hlineto
          -107 callgsubr
          endchar
        </CharString>
        <CharString name="dvDDHxA">
          -12 309 41 rmoveto
          -47 callgsubr
          -487 hlineto
          76 callgsubr
          59 -122 rmoveto
          25 vlineto
          7 -3 2 -5 vhcurveto
          -20 hlineto
          -73 callsubr
          endchar
        </CharString>
        <CharString name="dvDD_DDA">
          -2 -1 623 126 callgsubr
          -54 16 -33 33 -16 vhcurveto
          -29 -15 -15 -26 -43 vvcurveto
          -4 vlineto
          -73 43 -26 81 vhcurveto
          156 callgsubr
          -14 151 callgsubr
          96 hlineto
          81 43 33 73 hvcurveto
          16 vlineto
          73 -43 31 -81 vhcurveto
          -81 hlineto
          -67 -27 15 58 58 27 15 67 hvcurveto
          303 callsubr
          16 111 callsubr
        </CharString>
        <CharString name="dvDD_DDHA">
          -2 -1 623 126 callgsubr
          -60 20 -34 40 -14 vhcurveto
          -38 -22 -22 -40 -54 vvcurveto
          -57 302 callsubr
          hlineto
          81 43 43 83 hvcurveto
          5 -13 callsubr
          -4 vlineto
          -68 -27 -31 -67 vhcurveto
          -100 -55 callsubr
          55 -48 callgsubr
          76 hlineto
          81 43 33 73 hvcurveto
          16 111 callsubr
        </CharString>
        <CharString name="dvDD_R">
          -17 271 -165 rmoveto
          91 callsubr
          -10 hlineto
          -42 callgsubr
          -361 916 36 callsubr
          -119 251 callgsubr
          -32 -73 hvcurveto
          -17 vlineto
          -73 43 -32 81 vhcurveto
          81 hlineto
          67 27 -19 -58 hvcurveto
          -52 151 callgsubr
          26 hlineto
          -104 -136 -42 callsubr
          -104 136 rlineto
          5 -1 callsubr
          90 -106 callgsubr
          endchar
        </CharString>
        <CharString name="dvDD_RA">
          -17 -1 623 36 callsubr
          -119 251 callgsubr
          -32 -73 hvcurveto
          -17 vlineto
          -73 43 -32 81 vhcurveto
          81 hlineto
          67 27 -19 -58 hvcurveto
          -52 151 callgsubr
          26 52 callsubr
          1 -1 callsubr
          90 -106 callgsubr
          endchar
        </CharString>
        <CharString name="dvDD_VA">
          -2 213 -93 rmoveto
          -67 -27 31 62 58 35 25 62 hvcurveto
          72 hlineto
          42 31 9 18 21 hvcurveto
          -100 vlineto
          -68 -37 -35 -67 vhcurveto
          -279 716 126 callgsubr
          -60 20 -33 39 -15 vhcurveto
          -27 -15 -21 -28 -48 vvcurveto
          -78 43 -43 81 vhcurveto
          65 hlineto
          81 53 47 83 hvcurveto
          196 111 callsubr
        </CharString>
        <CharString name="dvDD_YA">
          477 844 223 72 callsubr
          41 -89 hvcurveto
          -193 129 -16 callsubr
          444 -100 callsubr
          -845 33 36 callsubr
          -121 251 callgsubr
          -30 -73 hvcurveto
          -17 vlineto
          -73 43 -32 81 vhcurveto
          81 hlineto
          67 27 -19 -58 hvcurveto
          -52 151 callgsubr
          96 hlineto
          81 43 33 73 hvcurveto
          54 vlineto
          73 -43 31 -81 vhcurveto
          -81 265 callgsubr
          368 77 callgsubr
          -129 hlineto
          -7 3 -2 5 vhcurveto
          14 hlineto
          -107 callgsubr
          endchar
        </CharString>
        <CharString name="dvDDxA">
          -17 -1 623 1 callsubr
          -213 -734 rmoveto
          25 vlineto
          7 -3 2 -5 vhcurveto
          -20 hlineto
          -73 callsubr
          endchar
        </CharString>
        <CharString name="dvDH">
          -170 213 111 rmoveto
          22 callsubr
          27 vlineto
          66 25 33 64 vhcurveto
          39 hlineto
          7 2 3 5 hvcurveto
          9 vlineto
          5 -2 3 -7 vhcurveto
          -240 hlineto
          190 callsubr
          134 callgsubr
          -1 295 callsubr
          110 -106 callgsubr
          endchar
        </CharString>
        <CharString name="dvDHA">
          67 224 78 callsubr
          -225 -14 callsubr
          121 259 callsubr
          -50 192 callsubr
          117 hlineto
          46 38 16 34 16 hvcurveto
          4 -113 hlineto
          -7 3 -2 5 vhcurveto
          14 hlineto
          -107 callgsubr
          -231 -14 callsubr
          91 hlineto
          324 callsubr
          126 callsubr
          48 35 callgsubr
          endchar
        </CharString>
        <CharString name="dvDH_MA">
          324 691 347 -41 callsubr
          -314 -62 callgsubr
          34 -100 callsubr
          -380 vlineto
          -68 -35 -31 -67 vhcurveto
          -105 hlineto
          22 callsubr
          27 71 callsubr
          -29 270 callgsubr
          105 hlineto
          81 51 43 83 hvcurveto
          95 -74 callsubr
          -295 vlineto
          -7 3 -2 5 vhcurveto
          14 hlineto
          -107 callgsubr
          endchar
        </CharString>
        <CharString name="dvDH_NA">
          321 377 -78 callsubr
          302 -100 callsubr
          -218 vlineto
          306 callsubr
          -16 4 -16 hvcurveto
          -2 -1 -2 -2 -2 -2 rrcurveto
          -27 -27 -20 -17 -46 hhcurveto
          -94 hlineto
          179 callsubr
          4 -54 callgsubr
          7 71 callsubr
          -9 209 callsubr
          94 hlineto
          55 30 25 22 23 hvcurveto
          2 -8 4 -8 3 -8 219 callgsubr
          -320 vlineto
          -7 3 -2 5 vhcurveto
          14 hlineto
          -107 callgsubr
          endchar
        </CharString>
        <CharString name="dvDH_N_YA">
          645 1012 44 callgsubr
          90 24 vlineto
          75 50 35 91 hvcurveto
          32 27 callgsubr
          -678 -62 callgsubr
          379 hlineto
          36 callgsubr
          -31 170 callgsubr
          -238 hlineto
          210 callgsubr
          -24 5 -26 6 -23 hvcurveto
          -24 -25 -20 -16 -44 hhcurveto
          -94 hlineto
          179 callsubr
          4 -54 callgsubr
          4 71 callsubr
          -6 209 callsubr
          94 hlineto
          48 29 19 20 22 hvcurveto
          3 -11 4 -9 3 -8 165 callgsubr
          -1 287 callsubr
          -20 51 42 vvcurveto
          35 18 28 43 vhcurveto
          182 -92 213 callsubr
          -157 hlineto
          -7 3 -2 5 vhcurveto
          14 hlineto
          -107 callgsubr
          endchar
        </CharString>
        <CharString name="dvDH_R">
          -170 334 -78 callsubr
          81 -106 callgsubr
          -90 -580 rmoveto
          39 30 63 50 18 21 174 callsubr
          -33 -35 -18 -13 -53 hhcurveto
          -106 hlineto
          179 callsubr
          30 35 callgsubr
          24 hlineto
          -97 callsubr
          9 vlineto
          -86 callgsubr
          vhcurveto
          -225 -14 callsubr
          121 259 callsubr
          -32 192 callsubr
          124 -4 hlineto
          0 -31 -20 -46 -36 vhcurveto
          -66 -51 140 callgsubr
          endchar
        </CharString>
        <CharString name="dvDH_RA">
          67 81 216 rmoveto
          189 callsubr
          124 -4 hlineto
          0 -31 -20 -46 -36 vhcurveto
          -66 -51 140 callgsubr
          125 97 rlineto
          53 41 18 19 0 vvcurveto
          4 -121 hlineto
          -7 3 -2 5 vhcurveto
          14 hlineto
          -107 callgsubr
          -231 -14 callsubr
          91 -100 callsubr
          -363 126 callsubr
          30 35 callgsubr
          24 hlineto
          -97 callsubr
          9 vlineto
          -86 callgsubr
          vhcurveto
          -225 -14 callsubr
          121 259 callsubr
          endchar
        </CharString>
        <CharString name="dvDH_VA">
          309 377 -78 callsubr
          291 -10 callgsubr
          -101 callgsubr
          -81 -53 -50 -83 hvcurveto
          -123 vlineto
          -31 8 -27 13 -21 vhcurveto
          -25 -25 -22 -15 -44 hhcurveto
          -117 hlineto
          22 callsubr
          27 vlineto
          66 25 33 64 vhcurveto
          39 hlineto
          7 2 3 5 hvcurveto
          9 vlineto
          5 -2 3 -7 vhcurveto
          -240 hlineto
          190 callsubr
          56 30 25 23 22 hvcurveto
          -22 23 33 -12 40 hhcurveto
          -12 callgsubr
          13 hlineto
          -107 callgsubr
          endchar
        </CharString>
        <CharString name="dvDH_YA">
          387 754 251 -90 callgsubr
          -377 -62 callgsubr
          78 -18 callsubr
          -39 11 -32 20 -24 vhcurveto
          -2 -1 -3 -3 -2 -2 rrcurveto
          -27 -27 -21 -16 -46 hhcurveto
          -117 hlineto
          22 callsubr
          27 vlineto
          66 25 33 64 vhcurveto
          39 hlineto
          7 2 3 5 hvcurveto
          9 vlineto
          5 -2 3 -7 vhcurveto
          -240 hlineto
          190 callsubr
          321 callgsubr
          2 2 3 3 1 3 rrcurveto
          -20 25 33 -11 38 hhcurveto
          231 callsubr
          -157 hlineto
          -7 3 -2 5 vhcurveto
          14 hlineto
          -107 callgsubr
          endchar
        </CharString>
        <CharString name="dvD_BA">
          -17 293 callgsubr
          -24 -16 -18 vhcurveto
          -172 144 rlineto
          2 9 10 1 11 hhcurveto
          -3 -176 rmoveto
          -67 -27 26 62 hvcurveto
          10 vlineto
          30 13 21 23 13 vhcurveto
          180 -150 rlineto
          -8 -15 -20 -4 -22 hhcurveto
          -278 706 68 callgsubr
        </CharString>
        <CharString name="dvD_BHA">
          -7 -76 callsubr
          354 311 callsubr
          -144 277 callgsubr
          -38 -32 callgsubr
          58 hlineto
          38 34 8 28 18 hvcurveto
          4 -195 -184 hlineto
          171 callgsubr
          22 vlineto
          68 -41 36 -68 vhcurveto
          -7 -14 callsubr
          7 150 callgsubr
          -137 vlineto
          -87 callsubr
          71 -95 callgsubr
          183 -126 21 callsubr
          459 38 callgsubr
          -74 callgsubr
          hvcurveto
          -30 99 callgsubr
          -58 -55 callsubr
          36 -48 callgsubr
          166 308 callsubr
          91 -106 callgsubr
          endchar
        </CharString>
        <CharString name="dvD_B_RA">
          -14 293 callgsubr
          -25 -16 -17 vhcurveto
          -173 144 rlineto
          2 10 10 1 11 hhcurveto
          -3 -176 rmoveto
          -67 -27 26 62 hvcurveto
          10 vlineto
          30 13 21 23 13 vhcurveto
          180 -150 rlineto
          -8 -15 -20 -4 -22 hhcurveto
          -278 706 212 callsubr
          -59 26 -43 44 -21 vhcurveto
          -30 -13 -27 -27 -50 vvcurveto
          -11 vlineto
          -78 43 -36 81 vhcurveto
          65 hlineto
          10 10 1 1 9 hvcurveto
          -99 -95 97 callsubr
          136 137 rlineto
          1 vlineto
          19 21 11 30 38 vvcurveto
          221 38 callgsubr
          -74 callgsubr
          hvcurveto
          -30 99 callgsubr
          -78 -55 callsubr
          96 -28 callgsubr
          81 -106 callgsubr
          endchar
        </CharString>
        <CharString name="dvD_DA">
          13 134 259 rmoveto
          -33 318 callgsubr
          101 hlineto
          38 34 8 28 18 hvcurveto
          4 -120 21 callsubr
          231 38 callgsubr
          -74 callgsubr
          hvcurveto
          -30 99 callgsubr
          -101 263 callgsubr
          101 -104 callsubr
          -101 204 callgsubr
          186 -20 callsubr
          91 -106 callgsubr
          -511 -14 callsubr
          373 -7 callsubr
          -164 hlineto
          -81 -43 -32 -73 hvcurveto
          -6 vlineto
          -44 19 -30 31 -15 vhcurveto
          endchar
        </CharString>
        <CharString name="dvD_DHA">
          190 -76 callsubr
          551 84 callsubr
          -81 -53 -53 -83 hvcurveto
          -98 vlineto
          -59 27 -44 44 -20 vhcurveto
          -16 99 callgsubr
          -71 hlineto
          -67 -27 21 58 hvcurveto
          10 vlineto
          55 24 22 70 155 callgsubr
          -41 204 callgsubr
          11 -104 callsubr
          -11 208 callgsubr
          -12 vlineto
          -73 43 -33 81 vhcurveto
          71 hlineto
          38 83 8 109 hvcurveto
          7 vlineto
          -3 11 12 -1 13 hhcurveto
          47 callgsubr
        </CharString>
        <CharString name="dvD_GA">
          206 callsubr
          -78 vlineto
          -77 45 -51 71 -7 vhcurveto
          -92 vlineto
          -80 -43 -46 callgsubr
          53 36 94 hvcurveto
          91 66 vlineto
          38 34 8 28 18 hvcurveto
          4 -140 21 callsubr
          251 149 callsubr
        </CharString>
        <CharString name="dvD_GHA">
          190 343 90 rmoveto
          -61 -31 -28 -63 vhcurveto
          -71 hlineto
          -67 -27 21 58 hvcurveto
          10 vlineto
          55 24 22 70 155 callgsubr
          -41 204 callgsubr
          96 hlineto
          -1 -9 -1 -9 -10 vvcurveto
          -98 vlineto
          -59 27 -44 44 -20 vhcurveto
          -344 517 -91 callgsubr
          551 84 callsubr
          -61 -45 -30 -50 -19 hvcurveto
          -103 208 callgsubr
          -12 vlineto
          -73 43 -33 81 vhcurveto
          71 hlineto
          38 83 8 109 hvcurveto
          7 vlineto
          -3 11 12 -1 13 hhcurveto
          47 callgsubr
        </CharString>
        <CharString name="dvD_G_RA">
          206 callsubr
          -78 vlineto
          -77 45 -51 71 -7 vhcurveto
          -92 vlineto
          -80 -43 -46 callgsubr
          53 36 94 hvcurveto
          91 66 vlineto
          38 34 8 28 18 hvcurveto
          4 -112 hlineto
          -196 -230 -28 callsubr
          12 hlineto
          7 3 3 6 5 hvcurveto
          165 195 rlineto
          -157 vlineto
          -98 callgsubr
          12 hlineto
          -83 callgsubr
          421 149 callsubr
        </CharString>
        <CharString name="dvD_MA">
          204 571 181 80 callsubr
          -183 hlineto
          171 callgsubr
          138 38 callgsubr
          -74 callgsubr
          hvcurveto
          -10 99 callgsubr
          -57 -55 callsubr
          16 -48 callgsubr
          156 308 callsubr
          189 -100 callsubr
          -572 -62 callgsubr
          327 311 callsubr
          -134 277 callgsubr
          -18 -32 callgsubr
          57 hlineto
          38 34 8 28 18 hvcurveto
          4 -172 21 callsubr
          81 -95 callgsubr
          182 -100 callsubr
          -129 vlineto
          -7 3 -2 5 vhcurveto
          14 hlineto
          -107 callgsubr
          endchar
        </CharString>
        <CharString name="dvD_NA">
          451 413 -60 rmoveto
          91 callsubr
          -10 hlineto
          -42 callgsubr
          -503 811 212 callsubr
          -3 callgsubr
          vhcurveto
          78 hlineto
          38 34 8 28 18 hvcurveto
          4 -120 21 callsubr
          231 38 callgsubr
          -74 callgsubr
          hvcurveto
          -30 99 callgsubr
          -78 -55 callsubr
          96 -28 callgsubr
          409 hlineto
          7 2 -3 -5 hvcurveto
          -214 vlineto
          -5 -2 -3 -7 vhcurveto
          205 callgsubr
          188 -100 callsubr
          -324 vlineto
          -7 3 -2 5 vhcurveto
          14 hlineto
          -107 callgsubr
          endchar
        </CharString>
        <CharString name="dvD_R">
          -7 322 -39 rmoveto
          91 callsubr
          -10 hlineto
          -42 callgsubr
          -412 790 rmoveto
          -7 -2 -3 -5 hvcurveto
          -9 vlineto
          -5 2 -3 7 vhcurveto
          354 hlineto
          7 2 -3 -5 hvcurveto
          -119 vlineto
          -5 -2 -3 -7 vhcurveto
          -144 hlineto
          -81 -53 -53 -83 hvcurveto
          -24 callsubr
        </CharString>
        <CharString name="dvD_RA">
          206 callsubr
          -24 callsubr
        </CharString>
        <CharString name="dvD_VA">
          -14 308 callgsubr
          -68 -37 -35 -67 vhcurveto
          -65 228 callgsubr
          hvcurveto
          10 vlineto
          51 39 27 58 vhcurveto
          -216 530 68 callgsubr
        </CharString>
        <CharString name="dvD_YA">
          92 209 491 rmoveto
          -81 -43 -32 -73 hvcurveto
          -6 vlineto
          -44 19 -30 36 -15 vhcurveto
          -4 vlineto
          -38 318 callgsubr
          156 hlineto
          38 34 8 28 18 hvcurveto
          4 -90 hlineto
          -7 3 -2 5 vhcurveto
          14 hlineto
          -107 callgsubr
          -591 -14 callsubr
          259 -100 callsubr
          -91 -64 callsubr
          22 -28 rmoveto
          -1 callgsubr
          109 -95 callgsubr
          145 -100 callsubr
          -410 99 callgsubr
          -156 263 callgsubr
          46 -104 callsubr
          -46 204 callgsubr
          endchar
        </CharString>
        <CharString name="dvE">
          30 -76 callsubr
          92 -100 callsubr
          -422 -32 callgsubr
          184 hlineto
          295 callgsubr
          -67 -37 41 68 hvcurveto
          421 284 callsubr
          -3 -5 hvcurveto
          -167 vlineto
          -80 -43 -22 -51 298 callsubr
          45 100 callgsubr
          167 -95 callgsubr
          67 -106 callgsubr
          endchar
        </CharString>
        <CharString name="dvEcandra">
          25 308 732 -6 callgsubr
          -248 -109 -91 callgsubr
          92 -100 callsubr
          -422 -32 callgsubr
          184 hlineto
          295 callgsubr
          -67 -37 41 68 hvcurveto
          421 284 callsubr
          -3 -5 hvcurveto
          -167 vlineto
          -80 -43 -22 -51 298 callsubr
          45 100 callgsubr
          167 -95 callgsubr
          67 -106 callgsubr
          endchar
        </CharString>
        <CharString name="dvEight">
          26 209 338 rmoveto
          254 callsubr
          104 -204 186 callgsubr
          -105 -50 callsubr
          70 264 callsubr
          30 306 rmoveto
          229 callgsubr
          105 hlineto
          283 callgsubr
          endchar
        </CharString>
        <CharString name="dvEyelash">
          -305 193 78 callsubr
          -194 -14 callsubr
          169 -232 211 callsubr
          -118 132 callsubr
          endchar
        </CharString>
        <CharString name="dvEyelash_HA">
          117 -76 callsubr
          478 -100 callsubr
          -109 -64 callsubr
          -138 hlineto
          -67 -41 -26 -53 -12 hvcurveto
          -90 132 callsubr
          86 -9 hlineto
          254 callgsubr
          vhcurveto
          -4 vlineto
          -44 -19 -24 -39 -59 vvcurveto
          -65 callgsubr
          90 -106 callgsubr
          endchar
        </CharString>
        <CharString name="dvEyelash_YA">
          207 574 251 -90 callgsubr
          -575 -62 callgsubr
          276 230 callsubr
          -144 132 callsubr
          89 -111 213 callsubr
          -157 hlineto
          -7 3 -2 5 vhcurveto
          14 hlineto
          -107 callgsubr
          endchar
        </CharString>
        <CharString name="dvFive">
          -21 391 265 rmoveto
          105 callsubr
          96 hlineto
          32 callsubr
          endchar
        </CharString>
        <CharString name="dvFour">
          -59 348 129 callsubr
        </CharString>
        <CharString name="dvG">
          -239 259 78 callsubr
          -260 -33 callsubr
          endchar
        </CharString>
        <CharString name="dvGA">
          -11 -3 callsubr
          172 -100 callsubr
          -581 vlineto
          -7 3 -2 5 vhcurveto
          14 hlineto
          -107 callgsubr
          endchar
        </CharString>
        <CharString name="dvGH">
          -170 213 111 rmoveto
          22 callsubr
          27 99 callsubr
          239 -106 callgsubr
          -440 hlineto
          190 callsubr
          134 callgsubr
          endchar
        </CharString>
        <CharString name="dvGHA">
          67 425 598 287 callgsubr
          -370 vlineto
          -68 -37 -41 -67 vhcurveto
          -117 hlineto
          22 callsubr
          27 99 callsubr
          -54 -237 rmoveto
          205 callsubr
          46 38 16 34 16 hvcurveto
          4 -124 hlineto
          -7 3 -2 5 vhcurveto
          14 hlineto
          -107 callgsubr
          -566 -14 callsubr
          121 35 callsubr
          -29 102 callgsubr
          endchar
        </CharString>
        <CharString name="dvGH_MA">
          322 689 347 -41 callsubr
          -271 -380 rmoveto
          -68 -35 -31 -67 vhcurveto
          -103 hlineto
          22 callsubr
          33 vlineto
          63 26 30 63 vhcurveto
          209 -100 callsubr
          -419 -62 callgsubr
          121 -4 hlineto
          -28 -16 -11 -28 -45 vvcurveto
          -34 270 callgsubr
          103 hlineto
          81 51 43 83 hvcurveto
          95 -74 callsubr
          -295 vlineto
          -7 3 -2 5 vhcurveto
          14 hlineto
          -107 callgsubr
          endchar
        </CharString>
        <CharString name="dvGH_NA">
          321 688 372 rmoveto
          306 callsubr
          -18 4 -18 hvcurveto
          -1 -1 rlineto
          -27 -27 -20 -17 -46 hhcurveto
          -99 hlineto
          179 callsubr
          4 -54 callgsubr
          7 99 callsubr
          479 -100 callsubr
          -689 -62 callgsubr
          121 35 callsubr
          -9 209 callsubr
          99 hlineto
          51 29 21 21 22 hvcurveto
          4 -10 3 -10 4 -9 112 callsubr
          -13 39 184 callgsubr
          -320 vlineto
          -7 3 -2 5 vhcurveto
          14 hlineto
          -107 callgsubr
          endchar
        </CharString>
        <CharString name="dvGH_R">
          -170 351 68 rmoveto
          46 35 23 19 24 22 151 callsubr
          -97 206 callgsubr
          203 -106 callgsubr
          -404 -14 callsubr
          121 35 callsubr
          -29 214 callgsubr
          -37 192 callsubr
          122 -4 hlineto
          0 -22 -12 -47 -35 vhcurveto
          -105 -78 140 callgsubr
          endchar
        </CharString>
        <CharString name="dvGH_RA">
          67 81 216 rmoveto
          189 callsubr
          122 -4 hlineto
          0 -22 -12 -47 -35 vhcurveto
          -105 -78 140 callgsubr
          109 82 rlineto
          90 68 30 30 0 vvcurveto
          4 -126 hlineto
          -7 3 -2 5 vhcurveto
          14 hlineto
          -107 callgsubr
          -566 -14 callsubr
          121 35 callsubr
          -29 214 callgsubr
          344 345 287 callgsubr
          -363 vlineto
          -68 -37 -41 -67 vhcurveto
          -117 206 callgsubr
          endchar
        </CharString>
        <CharString name="dvGH_YA">
          365 732 251 -90 callgsubr
          -519 -479 rmoveto
          22 callsubr
          27 99 callsubr
          233 -18 callsubr
          -45 15 -36 26 -25 vhcurveto
          -24 -25 -21 -14 -43 hhcurveto
          -331 512 rmoveto
          190 callsubr
          57 30 27 23 23 hvcurveto
          -14 23 27 -7 32 hhcurveto
          231 callsubr
          -157 hlineto
          -7 3 -2 5 vhcurveto
          14 hlineto
          -107 callgsubr
          endchar
        </CharString>
        <CharString name="dvG_BA">
          243 462 48 callgsubr
          -33 -18 -45 hhcurveto
          -507 43 callsubr
          128 -81 callsubr
          426 -100 callsubr
          -369 vlineto
          -7 0 -7 -1 -6 vhcurveto
          -224 236 202 callgsubr
          -81 -53 -50 -83 hvcurveto
          115 callgsubr
          44 -53 callsubr
          -131 hlineto
          -7 3 -2 5 vhcurveto
          14 hlineto
          -107 callgsubr
          endchar
        </CharString>
        <CharString name="dvG_BHA">
          247 516 70 callgsubr
          -265 -33 callsubr
          89 23 callsubr
          223 hlineto
          7 2 -3 -5 hvcurveto
          -295 vlineto
          -7 3 -2 5 vhcurveto
          14 hlineto
          -107 callgsubr
          endchar
        </CharString>
        <CharString name="dvG_BH_YA">
          588 955 251 -90 callgsubr
          -430 -62 callgsubr
          131 -58 callgsubr
          -47 -211 vlineto
          122 callgsubr
          -7 hlineto
          -3 hlineto
          -4 hlineto
          -260 -33 callsubr
          84 hlineto
          4 hlineto
          3 hlineto
          7 23 callsubr
          210 -57 213 callsubr
          -157 hlineto
          -7 3 -2 5 vhcurveto
          14 hlineto
          -107 callgsubr
          endchar
        </CharString>
        <CharString name="dvG_DA">
          247 -3 callsubr
          432 84 callsubr
          102 callsubr
          endchar
        </CharString>
        <CharString name="dvG_DHA">
          325 592 -78 callsubr
          91 hlineto
          324 callsubr
          126 callsubr
          48 35 callgsubr
          24 hlineto
          -97 callsubr
          9 vlineto
          -86 callgsubr
          vhcurveto
          -483 -33 callsubr
          203 259 callsubr
          -50 192 callsubr
          117 hlineto
          46 38 16 34 16 hvcurveto
          4 -113 hlineto
          -7 3 -2 5 vhcurveto
          14 hlineto
          -107 callgsubr
          endchar
        </CharString>
        <CharString name="dvG_DH_VA">
          579 599 -78 callsubr
          339 -10 callgsubr
          -101 callgsubr
          -81 -53 -50 -83 hvcurveto
          -123 vlineto
          -31 8 -27 13 -21 vhcurveto
          -25 -25 -22 -15 -44 hhcurveto
          -127 hlineto
          22 callsubr
          27 278 callgsubr
          -500 -33 callsubr
          205 35 callsubr
          -29 270 callgsubr
          127 hlineto
          56 30 25 23 22 hvcurveto
          -22 23 33 -12 40 hhcurveto
          -12 callgsubr
          13 hlineto
          -107 callgsubr
          endchar
        </CharString>
        <CharString name="dvG_DH_YA">
          652 1019 251 -90 callgsubr
          -420 -62 callgsubr
          121 -18 callsubr
          -40 12 -33 21 -24 vhcurveto
          -4 -4 rlineto
          -27 -27 -21 -16 -46 hhcurveto
          -127 hlineto
          22 callsubr
          27 278 callgsubr
          -500 -33 callsubr
          205 35 callsubr
          -29 270 callgsubr
          127 hlineto
          321 callgsubr
          2 2 1 1 2 2 rrcurveto
          -18 24 31 -10 37 hhcurveto
          231 callsubr
          -157 hlineto
          -7 3 -2 5 vhcurveto
          14 hlineto
          -107 callgsubr
          endchar
        </CharString>
        <CharString name="dvG_GA">
          239 -3 callsubr
          202 -81 callsubr
          172 -100 callsubr
          -581 vlineto
          -7 3 -2 5 vhcurveto
          14 hlineto
          -107 callgsubr
          endchar
        </CharString>
        <CharString name="dvG_GHA">
          325 692 220 rmoveto
          -26 callsubr
          -117 hlineto
          22 callsubr
          27 99 callsubr
          225 -100 callsubr
          -693 -13 callgsubr
          203 150 callsubr
          46 38 16 34 16 hvcurveto
          4 -124 hlineto
          -7 3 -2 5 vhcurveto
          14 hlineto
          -107 callgsubr
          endchar
        </CharString>
        <CharString name="dvG_JA">
          296 -3 callsubr
          479 hlineto
          7 2 -3 -5 hvcurveto
          -167 vlineto
          -5 -2 -3 -7 vhcurveto
          -322 hlineto
          -66 callgsubr
          35 -30 17 vhcurveto
          4 174 4 callsubr
          -370 vlineto
          -7 3 -2 5 vhcurveto
          14 hlineto
          -107 callgsubr
          endchar
        </CharString>
        <CharString name="dvG_LA">
          427 -3 callsubr
          610 160 callsubr
          -4 hlineto
          2 callsubr
          -136 vlineto
          -89 callgsubr
          38 25 66 67 37 -28 -78 vhcurveto
          -300 vlineto
          -7 3 -2 5 vhcurveto
          14 hlineto
          -107 callgsubr
          endchar
        </CharString>
        <CharString name="dvG_MA">
          247 614 347 -41 callsubr
          -615 -13 callgsubr
          159 -47 callsubr
          223 hlineto
          7 2 -3 -5 hvcurveto
          -295 vlineto
          -7 3 -2 5 vhcurveto
          14 hlineto
          -107 callgsubr
          endchar
        </CharString>
        <CharString name="dvG_NA">
          222 -3 callsubr
          405 hlineto
          7 2 -3 -5 hvcurveto
          -214 vlineto
          -5 -2 -3 -7 vhcurveto
          205 callgsubr
          188 -100 callsubr
          -324 vlineto
          -7 3 -2 5 vhcurveto
          14 hlineto
          -107 callgsubr
          endchar
        </CharString>
        <CharString name="dvG_NNA">
          444 591 84 callgsubr
          -592 -13 callgsubr
          162 -5 callgsubr
          175 -100 callsubr
          -581 vlineto
          -7 3 -2 5 vhcurveto
          14 hlineto
          -107 callgsubr
          endchar
        </CharString>
        <CharString name="dvG_N_YA">
          564 931 251 -90 callgsubr
          -932 -13 callgsubr
          457 230 callsubr
          -238 123 callsubr
          -112 213 callsubr
          -157 hlineto
          -7 3 -2 5 vhcurveto
          14 hlineto
          -107 callgsubr
          endchar
        </CharString>
        <CharString name="dvG_R">
          -239 374 288 130 callsubr
          -248 -292 -28 callsubr
          12 hlineto
          7 3 3 6 5 hvcurveto
          121 589 rmoveto
          -105 callgsubr
          -260 -33 callsubr
          endchar
        </CharString>
        <CharString name="dvG_RA">
          -11 -3 callsubr
          172 -100 callsubr
          -283 vlineto
          -249 -292 -28 callsubr
          12 hlineto
          7 3 3 6 5 hvcurveto
          218 258 rlineto
          -258 vlineto
          -7 3 -2 5 vhcurveto
          14 hlineto
          -107 callgsubr
          endchar
        </CharString>
        <CharString name="dvG_R_YA">
          307 674 251 -90 callgsubr
          -675 -13 callgsubr
          200 101 callgsubr
          111 -4 hlineto
          168 callsubr
          111 92 rlineto
          4 -147 hlineto
          -7 3 -2 5 vhcurveto
          14 hlineto
          -107 callgsubr
          endchar
        </CharString>
        <CharString name="dvG_SA">
          329 696 329 -21 callgsubr
          -697 -13 callgsubr
          265 -82 callsubr
          -162 275 rlineto
          357 -100 callsubr
          -276 vlineto
          -7 3 -2 5 vhcurveto
          14 hlineto
          -107 callgsubr
          endchar
        </CharString>
        <CharString name="dvG_VA">
          237 -3 callsubr
          421 -10 callgsubr
          -101 callgsubr
          -81 -53 -50 -83 hvcurveto
          -123 vlineto
          1 callgsubr
          -12 callgsubr
          13 hlineto
          -107 callgsubr
          endchar
        </CharString>
        <CharString name="dvG_YA">
          320 687 251 -90 callgsubr
          -688 -13 callgsubr
          213 101 callgsubr
          231 callsubr
          -157 hlineto
          -7 3 -2 5 vhcurveto
          14 hlineto
          -107 callgsubr
          endchar
        </CharString>
        <CharString name="dvGx">
          -239 259 78 callsubr
          -260 -33 callsubr
          -31 -606 rmoveto
          25 vlineto
          7 -3 2 -5 vhcurveto
          -20 hlineto
          -73 callsubr
          endchar
        </CharString>
        <CharString name="dvGxA">
          -11 -3 callsubr
          172 -100 callsubr
          -581 vlineto
          -7 3 -2 5 vhcurveto
          14 hlineto
          -107 callgsubr
          -349 -644 rmoveto
          25 vlineto
          7 -3 2 -5 vhcurveto
          -20 hlineto
          -73 callsubr
          endchar
        </CharString>
        <CharString name="dvGx_R">
          -239 259 78 callsubr
          -260 -33 callsubr
          199 -310 130 callsubr
          -248 -292 -28 callsubr
          12 hlineto
          7 3 3 6 5 hvcurveto
          110 -90 rmoveto
          25 vlineto
          7 -3 2 -5 vhcurveto
          -20 hlineto
          -73 callsubr
          endchar
        </CharString>
        <CharString name="dvGx_RA">
          -11 216 -47 rmoveto
          -73 callsubr
          107 callsubr
          -237 670 -91 callgsubr
          128 -81 callsubr
          172 -100 callsubr
          -283 vlineto
          -249 -292 -28 callsubr
          12 hlineto
          7 3 3 6 5 hvcurveto
          218 258 rlineto
          -258 vlineto
          -7 3 -2 5 vhcurveto
          14 hlineto
          -107 callgsubr
          endchar
        </CharString>
        <CharString name="dvH">
          -11 247 -92 rmoveto
          -42 callgsubr
          -89 128 rlineto
          91 callsubr
          92 690 287 callgsubr
          -109 vlineto
          -5 -2 -3 -7 vhcurveto
          -138 148 callgsubr
          -65 callgsubr
          90 -106 callgsubr
          -488 -14 callsubr
          endchar
        </CharString>
        <CharString name="dvHA">
          -11 349 598 287 callgsubr
          -109 vlineto
          -5 -2 -3 -7 vhcurveto
          -138 148 callgsubr
          -65 callgsubr
          90 -106 callgsubr
          -488 -14 callsubr
          endchar
        </CharString>
        <CharString name="dvHA_mU">
          3 349 598 287 callgsubr
          -109 vlineto
          -5 -2 -3 -7 vhcurveto
          -138 148 callgsubr
          -37 -32 callgsubr
          89 hlineto
          78 13 -30 -58 -74 -34 -30 -77 hvcurveto
          -23 hlineto
          -102 -35 66 63 -35 245 callsubr
          -60 28 51 -82 119 hhcurveto
          22 hlineto
          83 58 38 94 77 -28 39 -93 hvcurveto
          -89 -55 callsubr
          35 vlineto
          67 35 42 64 vhcurveto
          70 hlineto
          67 27 -31 -68 hvcurveto
          -25 vlineto
          -87 callsubr
          26 vlineto
          83 -43 43 -81 vhcurveto
          -70 291 callgsubr
          161 166 callgsubr
          104 -106 callgsubr
          -502 -14 callsubr
          endchar
        </CharString>
        <CharString name="dvHA_mUU">
          3 -76 callsubr
          350 -100 callsubr
          -109 vlineto
          -5 -2 -3 -7 vhcurveto
          -138 148 callgsubr
          -15 vlineto
          -59 24 -42 43 -20 vhcurveto
          -37 -19 -13 -39 -54 vvcurveto
          137 callsubr
          -39 -55 callsubr
          13 vlineto
          67 35 42 64 vhcurveto
          70 hlineto
          67 27 -31 -68 hvcurveto
          -25 vlineto
          -87 callsubr
          26 vlineto
          83 -43 43 -81 vhcurveto
          -70 291 callgsubr
          161 166 callgsubr
          90 -106 callgsubr
          endchar
        </CharString>
        <CharString name="dvHA_mvR">
          7 -76 callsubr
          339 -100 callsubr
          -109 -64 callsubr
          -138 hlineto
          -81 -43 -34 -78 -55 22 -29 41 -14 hvcurveto
          -4 vlineto
          -44 -19 -24 -39 -59 vvcurveto
          -107 125 callgsubr
          105 vlineto
          67 35 42 64 vhcurveto
          50 hlineto
          -19 -19 -6 -32 -47 vvcurveto
          -88 20 -38 81 vhcurveto
          96 -104 callsubr
          -96 hlineto
          -65 -6 34 64 65 4 33 67 hvcurveto
          24 hlineto
          59 15 -21 -58 hvcurveto
          -5 vlineto
          -87 callsubr
          6 vlineto
          76 -25 30 -79 vhcurveto
          -150 hlineto
          -67 -27 21 62 63 29 21 65 hvcurveto
          161 166 callgsubr
          119 -106 callgsubr
          endchar
        </CharString>
        <CharString name="dvH_LA">
          619 282 -119 rmoveto
          91 callsubr
          -10 hlineto
          -42 callgsubr
          -372 870 -91 callgsubr
          350 -100 callsubr
          -109 vlineto
          -5 -2 -3 -7 vhcurveto
          -138 148 callgsubr
          -65 callgsubr
          580 160 callsubr
          -4 hlineto
          2 callsubr
          -136 vlineto
          -89 callgsubr
          38 25 66 67 37 -28 -78 vhcurveto
          -300 vlineto
          -7 3 -2 5 vhcurveto
          14 hlineto
          -107 callgsubr
          endchar
        </CharString>
        <CharString name="dvH_MA">
          250 617 181 80 callsubr
          -209 hlineto
          171 callgsubr
          63 vlineto
          12 -9 12 -20 vhcurveto
          -158 188 callsubr
          208 -100 callsubr
          -618 -62 callgsubr
          353 62 callgsubr
          150 -100 callsubr
          -196 vlineto
          -98 callgsubr
          12 hlineto
          -83 callgsubr
          101 -95 callgsubr
          208 -100 callsubr
          -165 vlineto
          -87 callsubr
          617 -107 callsubr
          endchar
        </CharString>
        <CharString name="dvH_NA">
          -11 -76 callsubr
          360 62 callgsubr
          150 hlineto
          -74 -61 rlineto
          -31 -26 -14 -26 -30 vvcurveto
          -29 11 -26 30 -27 vhcurveto
          -4 5 2 -1 3 317 callgsubr
          2 2 hvcurveto
          5 5 rlineto
          2 2 1 2 3 vvcurveto
          4 -4 4 -3 3 vhcurveto
          -20 19 -9 17 25 vvcurveto
          22 10 18 23 20 vhcurveto
          98 82 rlineto
          -181 vlineto
          -87 callsubr
          202 -103 callgsubr
          -213 188 callsubr
          80 -106 callgsubr
          endchar
        </CharString>
        <CharString name="dvH_NNA">
          643 292 -100 rmoveto
          91 callsubr
          -10 hlineto
          -42 callgsubr
          409 546 rmoveto
          5 callgsubr
          197 -100 callsubr
          -791 -62 callgsubr
          350 -100 callsubr
          -109 vlineto
          -5 -2 -3 -7 vhcurveto
          -138 148 callgsubr
          -65 callgsubr
          139 -5 callgsubr
          175 -100 callsubr
          -581 vlineto
          -7 3 -2 5 vhcurveto
          14 hlineto
          -107 callgsubr
          endchar
        </CharString>
        <CharString name="dvH_RA">
          -9 -76 callsubr
          348 62 callgsubr
          155 hlineto
          -145 -162 rlineto
          -3 -3 -3 -4 -4 vvcurveto
          -4 -94 callgsubr
          14 140 callsubr
          148 166 rlineto
          -178 vlineto
          -87 callsubr
          186 vlineto
          14 -11 10 -14 vhcurveto
          -194 188 callsubr
          94 -106 callgsubr
          endchar
        </CharString>
        <CharString name="dvH_VA">
          419 282 -101 rmoveto
          91 callsubr
          -10 hlineto
          -42 callgsubr
          -372 852 -91 callgsubr
          350 -100 callsubr
          -109 vlineto
          -5 -2 -3 -7 vhcurveto
          -138 148 callgsubr
          -65 callgsubr
          381 -10 callgsubr
          -101 callgsubr
          -81 -53 -50 -83 hvcurveto
          -123 vlineto
          1 callgsubr
          -12 callgsubr
          13 hlineto
          -107 callgsubr
          endchar
        </CharString>
        <CharString name="dvH_YA">
          287 654 88 rmoveto
          -70 -44 -46 -70 vhcurveto
          -66 hlineto
          -72 -42 44 77 hvcurveto
          24 hlineto
          75 50 25 81 61 -35 39 -89 hvcurveto
          -181 hlineto
          -67 -27 16 57 59 29 14 65 hvcurveto
          171 166 callgsubr
          245 -100 callsubr
          -655 -62 callgsubr
          313 callgsubr
          -109 -64 callsubr
          -148 hlineto
          -81 -43 -23 -78 -53 22 -27 35 -9 hvcurveto
          -4 vlineto
          -43 -15 -19 -42 -59 vvcurveto
          -117 -32 callgsubr
          119 -104 callsubr
          -119 -55 callsubr
          115 vlineto
          67 32 42 67 vhcurveto
          181 hlineto
          63 31 -16 -56 -59 -30 -19 198 callsubr
          -21 vlineto
          -93 144 callsubr
          66 hlineto
          50 43 24 35 17 hvcurveto
          4 -106 hlineto
          -87 callsubr
          693 -107 callsubr
          endchar
        </CharString>
        <CharString name="dvI">
          -16 289 246 rmoveto
          17 callgsubr
          -483 hlineto
          121 callgsubr
          endchar
        </CharString>
        <CharString name="dvII">
          -16 293 739 rmoveto
          110 callsubr
          57 -104 callsubr
          -56 225 callgsubr
          -58 vlineto
          -33 5 -12 15 -9 vhcurveto
          -4 -284 vlineto
          121 callgsubr
          87 hlineto
          17 callgsubr
          -127 hlineto
          -51 -11 10 42 hvcurveto
          endchar
        </CharString>
        <CharString name="dvII_Anusvara">
          -16 293 739 rmoveto
          110 callsubr
          57 -104 callsubr
          -56 225 callgsubr
          -58 vlineto
          -33 5 -12 15 -9 vhcurveto
          -4 -284 vlineto
          121 callgsubr
          87 hlineto
          17 callgsubr
          -127 hlineto
          -51 -11 10 42 hvcurveto
          121 46 rmoveto
          -27 callgsubr
          endchar
        </CharString>
        <CharString name="dvJ">
          -191 411 78 callsubr
          -412 -14 callsubr
          412 -211 -16 callgsubr
          -329 hlineto
          -66 callgsubr
          35 -30 17 vhcurveto
          4 vlineto
          endchar
        </CharString>
        <CharString name="dvJA">
          46 230 387 rmoveto
          174 -100 callsubr
          -370 vlineto
          -7 3 -2 5 vhcurveto
          14 hlineto
          -107 callgsubr
          -545 -14 callsubr
          405 hlineto
          7 2 -3 -5 hvcurveto
          -167 vlineto
          -5 -2 -3 -7 vhcurveto
          -322 hlineto
          -66 callgsubr
          35 -30 17 vhcurveto
          endchar
        </CharString>
        <CharString name="dvJH">
          -57 541 278 -16 callgsubr
          -337 hlineto
          135 callgsubr
          183 -106 callgsubr
          -542 hlineto
          -49 callgsubr
          endchar
        </CharString>
        <CharString name="dvJHA">
          172 310 598 287 callgsubr
          -89 -64 callsubr
          -106 hlineto
          -81 -43 -32 -73 hvcurveto
          -15 253 callgsubr
          61 hlineto
          60 24 -22 -55 hvcurveto
          -35 vlineto
          -58 -27 -21 -67 vhcurveto
          -58 199 callsubr
          30 38 callgsubr
          -74 callgsubr
          hvcurveto
          -201 vlineto
          -98 callgsubr
          12 hlineto
          -83 callgsubr
          90 4 vlineto
          -28 18 34 -8 38 hhcurveto
          58 hlineto
          81 43 33 73 hvcurveto
          37 vlineto
          34 -9 28 -21 14 vhcurveto
          181 -100 callsubr
          -251 vlineto
          -7 3 -2 5 vhcurveto
          14 hlineto
          -107 callgsubr
          -671 -14 callsubr
          531 hmoveto
          -99 callsubr
          -286 -64 callsubr
          -326 hlineto
          -67 -27 19 58 hvcurveto
          15 90 callsubr
          endchar
        </CharString>
        <CharString name="dvJH_MA">
          446 813 347 -41 callsubr
          -609 -284 rmoveto
          135 callgsubr
          175 -100 callsubr
          -284 vlineto
          -543 317 rmoveto
          -49 callgsubr
          193 -85 hlineto
          -87 callsubr
          111 -74 callsubr
          -295 vlineto
          -7 3 -2 5 vhcurveto
          14 hlineto
          -107 callgsubr
          endchar
        </CharString>
        <CharString name="dvJH_NA">
          444 811 185 callgsubr
          -50 -28 -25 -37 -9 hvcurveto
          -322 hlineto
          135 callgsubr
          444 -100 callsubr
          -812 33 rmoveto
          -49 callgsubr
          174 hlineto
          -20 6 -26 158 callgsubr
          188 -100 callsubr
          -324 vlineto
          -7 3 -2 5 vhcurveto
          14 hlineto
          -107 callgsubr
          endchar
        </CharString>
        <CharString name="dvJH_R">
          -73 333 465 rmoveto
          -1 callgsubr
          107 vlineto
          5 2 3 7 vhcurveto
          183 -106 callgsubr
          -542 hlineto
          -49 callgsubr
          173 -108 hlineto
          -171 -188 97 callsubr
          146 166 rlineto
          14 14 3 21 21 vvcurveto
          100 -103 callgsubr
          -337 hlineto
          -67 -27 19 58 hvcurveto
          5 vlineto
          58 27 19 67 vhcurveto
          endchar
        </CharString>
        <CharString name="dvJH_RA">
          182 204 306 rmoveto
          135 callgsubr
          182 -100 callsubr
          -276 -64 callsubr
          -541 317 rmoveto
          -49 callgsubr
          191 -100 callsubr
          -73 vlineto
          -198 -215 97 callsubr
          162 179 rlineto
          -146 vlineto
          -7 3 -2 5 vhcurveto
          14 hlineto
          -107 callgsubr
          endchar
        </CharString>
        <CharString name="dvJH_YA">
          511 878 251 -90 callgsubr
          -674 -284 rmoveto
          135 callgsubr
          221 -58 callgsubr
          -80 vlineto
          -525 317 rmoveto
          -49 callgsubr
          175 -23 213 callsubr
          -157 hlineto
          -7 3 -2 5 vhcurveto
          14 hlineto
          -107 callgsubr
          endchar
        </CharString>
        <CharString name="dvJ_BA">
          314 533 48 callgsubr
          -33 -18 -45 hhcurveto
          -578 43 callsubr
          673 -100 callsubr
          -369 vlineto
          -7 0 -7 -1 -6 vhcurveto
          -224 236 202 callgsubr
          -61 -45 -28 -49 -18 hvcurveto
          -327 hlineto
          -66 callgsubr
          35 -30 17 vhcurveto
          4 171 vlineto
          -1 -9 -1 -9 -10 vvcurveto
          115 callgsubr
          44 -53 callsubr
          -131 hlineto
          -7 3 -2 5 vhcurveto
          14 hlineto
          -107 callgsubr
          endchar
        </CharString>
        <CharString name="dvJ_DA">
          321 -76 callsubr
          682 84 callsubr
          -46 -38 -17 -31 -23 hvcurveto
          -348 hlineto
          -66 callgsubr
          35 -30 17 vhcurveto
          4 184 vlineto
          -7 -18 -4 -20 -22 vvcurveto
          -98 -32 callgsubr
          47 callgsubr
        </CharString>
        <CharString name="dvJ_DDA">
          305 -76 callsubr
          667 163 callgsubr
          -53 -36 -14 -29 -19 hvcurveto
          -346 hlineto
          -66 callgsubr
          35 -30 17 vhcurveto
          4 186 vlineto
          -3 -10 -1 -11 -13 vvcurveto
          -17 vlineto
          -73 43 -32 81 vhcurveto
          81 hlineto
          67 27 -19 -58 hvcurveto
          -52 151 callgsubr
          96 -1 callsubr
          90 -106 callgsubr
          endchar
        </CharString>
        <CharString name="dvJ_JA">
          405 382 387 -16 callgsubr
          -299 hlineto
          -66 callgsubr
          35 -30 17 vhcurveto
          4 vlineto
          358 hmoveto
          174 -100 callsubr
          -370 vlineto
          -7 3 -2 5 vhcurveto
          14 hlineto
          -107 callgsubr
          -904 -14 callsubr
          764 -100 callsubr
          -167 -64 callsubr
          -292 -91 callsubr
          37 hlineto
          51 43 -22 -80 hvcurveto
          -79 3 callsubr
          -117 hlineto
          250 callgsubr
          72 53 36 94 hvcurveto
          79 vlineto
          46 -13 35 -30 17 vhcurveto
          endchar
        </CharString>
        <CharString name="dvJ_JHA">
          501 868 304 80 callsubr
          -326 hlineto
          -67 -27 19 58 hvcurveto
          15 90 callsubr
          172 -100 callsubr
          -869 -62 callgsubr
          640 -100 callsubr
          -89 -64 callsubr
          -106 hlineto
          -70 -42 -24 -54 -10 hvcurveto
          0 -329 vlineto
          -66 callgsubr
          35 -30 17 vhcurveto
          4 179 -14 253 callgsubr
          61 hlineto
          60 24 -22 -55 hvcurveto
          -35 vlineto
          -58 -27 -21 -67 vhcurveto
          -58 199 callsubr
          30 38 callgsubr
          -74 callgsubr
          hvcurveto
          -201 vlineto
          -98 callgsubr
          12 hlineto
          -83 callgsubr
          90 4 vlineto
          -28 18 34 -8 38 hhcurveto
          58 hlineto
          81 43 33 73 hvcurveto
          37 vlineto
          34 -9 28 -21 14 vhcurveto
          181 -100 callsubr
          -251 vlineto
          -7 3 -2 5 vhcurveto
          14 hlineto
          -107 callgsubr
          endchar
        </CharString>
        <CharString name="dvJ_J_NYA">
          446 -76 callsubr
          805 -7 callsubr
          -286 hlineto
          -56 -37 -15 -33 -18 hvcurveto
          -325 hlineto
          -66 callgsubr
          35 -30 17 vhcurveto
          4 167 vlineto
          -2 -9 -1 -9 -11 vvcurveto
          2 callgsubr
          286 -100 callsubr
          -418 vlineto
          -7 3 -2 5 vhcurveto
          14 hlineto
          -107 callgsubr
          endchar
        </CharString>
        <CharString name="dvJ_J_VA">
          757 232 387 rmoveto
          141 -104 callsubr
          -289 hlineto
          -66 callgsubr
          35 -30 17 vhcurveto
          -233 240 -91 callgsubr
          1032 -10 callgsubr
          -101 callgsubr
          -58 -44 -26 -45 -20 hvcurveto
          -303 162 callgsubr
          186 vlineto
          -2 -11 -1 -11 -12 vvcurveto
          -123 vlineto
          1 callgsubr
          -12 callgsubr
          13 hlineto
          -107 callgsubr
          endchar
        </CharString>
        <CharString name="dvJ_J_YA">
          750 232 387 rmoveto
          141 -104 callsubr
          -289 hlineto
          -66 callgsubr
          35 -30 17 vhcurveto
          885 -132 rmoveto
          20 callgsubr
          -96 hlineto
          9 callsubr
          100 24 vlineto
          75 50 35 91 hvcurveto
          22 27 callgsubr
          -1118 -62 callgsubr
          819 hlineto
          36 callgsubr
          -21 170 callgsubr
          -32 hlineto
          21 -8 -18 10 -33 hhcurveto
          -255 162 callgsubr
          147 vlineto
          34 2 -13 -32 hvcurveto
          -87 vlineto
          33 callsubr
          231 callsubr
          -157 hlineto
          -7 3 -2 5 vhcurveto
          14 hlineto
          -107 callgsubr
          endchar
        </CharString>
        <CharString name="dvJ_KA">
          554 -76 callsubr
          666 -10 callgsubr
          -101 callgsubr
          -58 -44 -26 -45 -20 hvcurveto
          -327 hlineto
          -66 callgsubr
          35 -30 17 vhcurveto
          4 170 vlineto
          -2 -11 -1 -11 -12 vvcurveto
          -123 vlineto
          -83 53 -50 81 vhcurveto
          39 hlineto
          48 34 14 34 18 hvcurveto
          4 -136 -70 callgsubr
        </CharString>
        <CharString name="dvJ_MA">
          312 679 347 -41 callsubr
          -680 -62 callgsubr
          400 -100 callsubr
          -175 -326 vlineto
          -66 callgsubr
          35 -30 17 vhcurveto
          4 178 -194 -46 callsubr
          223 hlineto
          7 2 -3 -5 hvcurveto
          -295 vlineto
          -7 3 -2 5 vhcurveto
          14 hlineto
          -107 callgsubr
          endchar
        </CharString>
        <CharString name="dvJ_NA">
          331 -76 callsubr
          690 -100 callsubr
          -204 -64 callsubr
          -607 hlineto
          -66 callgsubr
          36 -30 17 vhcurveto
          4 202 vlineto
          -15 211 callgsubr
          188 -100 callsubr
          -334 vlineto
          -7 3 -2 5 vhcurveto
          14 hlineto
          -107 callgsubr
          endchar
        </CharString>
        <CharString name="dvJ_NY">
          -89 -76 callsubr
          509 -106 callgsubr
          -300 -160 rmoveto
          105 callgsubr
          300 163 callsubr
        </CharString>
        <CharString name="dvJ_NYA">
          136 208 463 rmoveto
          105 callgsubr
          286 -100 callsubr
          -418 vlineto
          -7 3 -2 5 vhcurveto
          14 hlineto
          -107 callgsubr
          -635 -14 callsubr
          495 -7 callsubr
          endchar
        </CharString>
        <CharString name="dvJ_NY_YA">
          482 849 44 callgsubr
          77 24 vlineto
          75 50 35 91 hvcurveto
          45 27 callgsubr
          -850 -62 callgsubr
          551 hlineto
          36 callgsubr
          -44 170 callgsubr
          -25 hlineto
          65 -1 -34 37 -71 hhcurveto
          -211 hlineto
          105 callgsubr
          211 hlineto
          54 22 -27 -51 hvcurveto
          0 vlineto
          -1 0 -1 -2 vvcurveto
          -98 vlineto
          33 callsubr
          231 callsubr
          -157 hlineto
          -7 3 -2 5 vhcurveto
          14 hlineto
          -107 callgsubr
          endchar
        </CharString>
        <CharString name="dvJ_R">
          -191 411 78 callsubr
          -412 -14 callsubr
          412 -211 -16 callgsubr
          -329 hlineto
          -66 callgsubr
          35 -30 17 vhcurveto
          4 vlineto
          -16 -396 171 callsubr
        </CharString>
        <CharString name="dvJ_RA">
          46 -76 callsubr
          405 222 callgsubr
          -69 -68 callgsubr
          69 vlineto
          46 -13 35 -30 17 vhcurveto
          4 174 4 callsubr
          -192 vlineto
          -199 -196 97 callsubr
          163 163 rlineto
          -139 vlineto
          -7 3 -2 5 vhcurveto
          14 hlineto
          -107 callgsubr
          endchar
        </CharString>
        <CharString name="dvJ_TA">
          328 -76 callsubr
          687 -100 callsubr
          -173 -64 callsubr
          -156 hlineto
          -37 -32 -10 -22 -23 hvcurveto
          24 -11 -23 14 -39 hhcurveto
          -290 hlineto
          -66 callgsubr
          35 -30 17 vhcurveto
          4 142 vlineto
          33 16 -15 -22 5 hvcurveto
          -9 -19 -5 -23 -29 vvcurveto
          -149 vlineto
          -81 callgsubr
          149 vlineto
          61 callgsubr
          -364 vlineto
          -7 3 -2 5 vhcurveto
          14 hlineto
          -107 callgsubr
          endchar
        </CharString>
        <CharString name="dvJ_TTA">
          323 -76 callsubr
          667 31 callsubr
          -127 hlineto
          -50 -40 -20 -36 -22 hvcurveto
          20 -13 -22 11 -35 hhcurveto
          -282 hlineto
          -66 callgsubr
          35 -30 17 vhcurveto
          4 134 vlineto
          33 16 -15 -22 5 hvcurveto
          -4 -14 -2 -15 -17 vvcurveto
          117 callgsubr
          90 hlineto
          -66 callsubr
          endchar
        </CharString>
        <CharString name="dvJ_VA">
          308 -76 callsubr
          668 -10 callgsubr
          -101 callgsubr
          -58 -44 -26 -45 -20 hvcurveto
          0 -329 vlineto
          -66 callgsubr
          35 -30 17 vhcurveto
          4 172 vlineto
          -2 -11 -1 -11 -12 vvcurveto
          -123 vlineto
          1 callgsubr
          -12 callgsubr
          13 hlineto
          -107 callgsubr
          endchar
        </CharString>
        <CharString name="dvJ_YA">
          392 759 251 -90 callgsubr
          -760 -62 callgsubr
          461 230 callsubr
          -28 hlineto
          27 -7 -18 14 -38 hhcurveto
          -294 hlineto
          -40 callsubr
          -99 -68 callgsubr
          99 vlineto
          46 -13 35 -30 17 vhcurveto
          4 146 vlineto
          34 2 -13 -32 hvcurveto
          -107 vlineto
          33 callsubr
          231 callsubr
          -157 hlineto
          -7 3 -2 5 vhcurveto
          14 hlineto
          -107 callgsubr
          endchar
        </CharString>
        <CharString name="dvJx">
          -185 146 -61 rmoveto
          25 vlineto
          7 -3 2 -5 vhcurveto
          -20 hlineto
          -73 callsubr
          265 659 rmoveto
          -105 callgsubr
          -412 -14 callsubr
          412 -211 -16 callgsubr
          -329 hlineto
          -66 callgsubr
          35 -30 17 vhcurveto
          4 vlineto
          endchar
        </CharString>
        <CharString name="dvJxA">
          46 230 387 rmoveto
          174 -100 callsubr
          -370 vlineto
          -7 3 -2 5 vhcurveto
          14 hlineto
          -107 callgsubr
          -545 -14 callsubr
          405 hlineto
          7 2 -3 -5 hvcurveto
          -167 vlineto
          -5 -2 -3 -7 vhcurveto
          -322 hlineto
          -66 callgsubr
          35 -30 17 vhcurveto
          -92 -414 rmoveto
          25 vlineto
          7 -3 2 -5 vhcurveto
          -20 hlineto
          -73 callsubr
          endchar
        </CharString>
        <CharString name="dvJx_JxA">
          405 138 -34 rmoveto
          25 vlineto
          7 -3 2 -5 vhcurveto
          -20 hlineto
          -73 callsubr
          383 hmoveto
          25 vlineto
          7 -3 2 -5 vhcurveto
          -20 hlineto
          -73 callsubr
          -139 421 -16 callgsubr
          -299 hlineto
          -66 callgsubr
          35 -30 17 vhcurveto
          4 vlineto
          358 hmoveto
          174 -100 callsubr
          -370 vlineto
          -7 3 -2 5 vhcurveto
          14 hlineto
          -107 callgsubr
          -904 -14 callsubr
          764 -100 callsubr
          -167 -64 callsubr
          -292 -91 callsubr
          37 hlineto
          51 43 -22 -80 hvcurveto
          -79 3 callsubr
          -117 hlineto
          250 callgsubr
          72 53 36 94 hvcurveto
          79 vlineto
          46 -13 35 -30 17 vhcurveto
          endchar
        </CharString>
        <CharString name="dvJx_R">
          -181 411 78 callsubr
          -412 -14 callsubr
          412 -211 -16 callgsubr
          -329 hlineto
          -66 callgsubr
          35 -30 17 vhcurveto
          4 vlineto
          -166 -468 rmoveto
          25 vlineto
          7 -3 2 -5 vhcurveto
          -20 hlineto
          -73 callsubr
          150 72 171 callsubr
        </CharString>
</ttFont>
